<svg xmlns="http://www.w3.org/2000/svg" width="800" height="56" viewBox="0 0 800 56"><style>@media(prefers-color-scheme:dark){:root{filter:invert(1)}}</style><g transform="translate(0.5,0.5)" text-anchor="middle" font-size="14" font-family="sans-serif" font-weight="normal"><g transform="translate(4,21)"><g stroke="black" stroke-width="1" stroke-linecap="round"><line x2="791"/><line y2="31"/><line x2="791" y1="31" y2="31"/><line x1="791" x2="791" y2="31"/><line x1="742" x2="742" y2="31"/><line x1="692" x2="692" y2="31"/><line x1="643" x2="643" y2="31"/><line x1="593" x2="593" y2="31"/><line x1="544" x2="544" y2="31"/><line x1="494" x2="494" y2="31"/><line x1="445" x2="445" y2="31"/><line x1="396" x2="396" y2="31"/><line x1="346" x2="346" y2="31"/><line x1="297" x2="297" y2="31"/><line x1="247" x2="247" y2="31"/><line x1="198" x2="198" y2="31"/><line x1="148" x2="148" y2="31"/><line x1="99" x2="99" y2="31"/><line x1="49" x2="49" y2="31"/></g><g><g><rect x="742" width="49" height="31" field="2^-8" style="fill-opacity:0.1;fill:#ff0000"/><rect x="692" width="49" height="31" field="2^-7" style="fill-opacity:0.1;fill:#ff0000"/><rect x="643" width="49" height="31" field="2^-6" style="fill-opacity:0.1;fill:#ff0000"/><rect x="593" width="49" height="31" field="2^-5" style="fill-opacity:0.1;fill:#ff0000"/><rect x="544" width="49" height="31" field="2^-4" style="fill-opacity:0.1;fill:#ff0000"/><rect x="494" width="49" height="31" field="2^-3" style="fill-opacity:0.1;fill:#ff0000"/><rect x="445" width="49" height="31" field="2^-2" style="fill-opacity:0.1;fill:#ff0000"/><rect x="396" width="49" height="31" field="2^-1" style="fill-opacity:0.1;fill:#ff0000"/></g><g transform="translate(25,-11)"><g transform="translate(742)"><text y="6">0</text></g><g transform="translate(692)"><text y="6">1</text></g><g transform="translate(643)"><text y="6">2</text></g><g transform="translate(593)"><text y="6">3</text></g><g transform="translate(544)"><text y="6">4</text></g><g transform="translate(494)"><text y="6">5</text></g><g transform="translate(445)"><text y="6">6</text></g><g transform="translate(396)"><text y="6">7</text></g><g transform="translate(346)"><text y="6">8</text></g><g transform="translate(297)"><text y="6">9</text></g><g transform="translate(247)"><text y="6">10</text></g><g transform="translate(198)"><text y="6">11</text></g><g transform="translate(148)"><text y="6">12</text></g><g transform="translate(99)"><text y="6">13</text></g><g transform="translate(49)"><text y="6">14</text></g><g transform="translate(0)"><text y="6">15</text></g></g><g transform="translate(25,15)"><g transform="translate(742)"><text y="6"><tspan>2^-8</tspan></text></g><g transform="translate(692)"><text y="6"><tspan>2^-7</tspan></text></g><g transform="translate(643)"><text y="6"><tspan>2^-6</tspan></text></g><g transform="translate(593)"><text y="6"><tspan>2^-5</tspan></text></g><g transform="translate(544)"><text y="6"><tspan>2^-4</tspan></text></g><g transform="translate(494)"><text y="6"><tspan>2^-3</tspan></text></g><g transform="translate(445)"><text y="6"><tspan>2^-2</tspan></text></g><g transform="translate(396)"><text y="6"><tspan>2^-1</tspan></text></g><g transform="translate(346)"><text y="6"><tspan>2^0</tspan></text></g><g transform="translate(297)"><text y="6"><tspan>2^1</tspan></text></g><g transform="translate(247)"><text y="6"><tspan>2^2</tspan></text></g><g transform="translate(198)"><text y="6"><tspan>2^3</tspan></text></g><g transform="translate(148)"><text y="6"><tspan>2^4</tspan></text></g><g transform="translate(99)"><text y="6"><tspan>2^5</tspan></text></g><g transform="translate(49)"><text y="6"><tspan>2^6</tspan></text></g><g transform="translate(0)"><text y="6"><tspan>2^7</tspan></text></g></g><g transform="translate(25,39)"/></g></g></g></svg>