<?xml version="1.0" encoding="UTF-8" standalone="no"?>
<!-- Created with Inkscape (http://www.inkscape.org/) -->

<svg
   width="65.390076mm"
   height="62.768158mm"
   viewBox="0 0 65.390076 62.768158"
   version="1.1"
   id="svg5998"
   xml:space="preserve"
   inkscape:version="1.2.2 (b0a8486541, 2022-12-01)"
   sodipodi:docname="Black and White.svg"
   xmlns:inkscape="http://www.inkscape.org/namespaces/inkscape"
   xmlns:sodipodi="http://sodipodi.sourceforge.net/DTD/sodipodi-0.dtd"
   xmlns="http://www.w3.org/2000/svg"
   xmlns:svg="http://www.w3.org/2000/svg"><sodipodi:namedview
     id="namedview6000"
     pagecolor="#ffffff"
     bordercolor="#666666"
     borderopacity="1.0"
     inkscape:showpageshadow="2"
     inkscape:pageopacity="0.0"
     inkscape:pagecheckerboard="0"
     inkscape:deskcolor="#d1d1d1"
     inkscape:document-units="mm"
     showgrid="false"
     inkscape:zoom="1.8721465"
     inkscape:cx="123.92192"
     inkscape:cy="123.38778"
     inkscape:window-width="1920"
     inkscape:window-height="1002"
     inkscape:window-x="0"
     inkscape:window-y="78"
     inkscape:window-maximized="1"
     inkscape:current-layer="layer1" /><defs
     id="defs5995" /><g
     inkscape:label="Layer 1"
     inkscape:groupmode="layer"
     id="layer1"><path
       style="fill:#000000;stroke-width:0.0159648"
       d="m 43.024631,62.764162 c -0.148656,-0.0257 -0.250275,-0.0553 -0.518711,-0.15108 -1.609972,-0.57446 -3.122707,-1.31256 -4.542131,-2.2162 -0.946654,-0.60266 -1.67613,-1.12498 -2.330861,-1.66894 -0.990407,-0.82284 -1.825183,-1.693 -2.662235,-2.77508 l -0.144678,-0.18703 -0.115708,0.17107 c -0.1645,0.24319 -0.500259,0.68869 -0.646308,0.85755 -0.182141,0.21058 -0.681194,0.70219 -0.965248,0.95085 -2.224361,1.94718 -5.164396,3.41062 -8.44811,4.20514 -0.417772,0.10108 -0.588613,0.13382 -1.545683,0.2962 -0.469765,0.0797 -1.011163,0.17332 -1.203108,0.20805 -0.494385,0.0894 -0.650717,0.085 -0.843654,-0.0241 -0.223328,-0.12622 -0.397493,-0.46108 -0.618925,-1.19 -0.06248,-0.20566 -0.245602,-0.9343 -0.495526,-1.97165 -0.06347,-0.26342 -0.157148,-0.62622 -0.208186,-0.80622 -0.11548,-0.40728 -0.144652,-0.52331 -0.20471,-0.81421 -0.114597,-0.55504 -0.176898,-1.1412 -0.18224,-1.7146 -0.0018,-0.19841 -0.0036,-0.36077 -0.0038,-0.36079 -2.71e-4,0 -0.05969,0.0249 -0.132053,0.0555 -0.679083,0.2864 -1.406278,0.47277 -2.194224,0.56234 -0.346109,0.0393 -1.305356,0.0393 -1.656456,0 -0.704265,-0.079 -1.532428,-0.26517 -1.829289,-0.41129 -0.248528,-0.12233 -0.433068,-0.30978 -0.556915,-0.56569 -0.09022,-0.18642 -0.111698,-0.28307 -0.150808,-0.6785 -0.155777,-1.57505 -0.15313,-3.08641 0.0081,-4.61383 0.156226,-1.48019 0.418796,-2.83547 0.766202,-3.9548 0.03875,-0.12487 0.07046,-0.23018 0.07046,-0.23404 0,-0.004 -0.05208,-0.0155 -0.115744,-0.0259 -0.567724,-0.0928 -1.447311,-0.32284 -2.160598,-0.56501 -2.470086,-0.83867 -4.877706,-2.27822 -7.054213,-4.21787 -0.31301,-0.278949 -2.13035303,-2.106447 -2.21967603,-2.232082 -0.131018,-0.184281 -0.156933,-0.448554 -0.06512,-0.664096 0.170343,-0.399907 0.505224,-0.830612 1.61367803,-2.075425 0.26193,-0.294151 0.565442,-0.642583 0.674471,-0.774292 0.453443,-0.547767 0.61605,-0.731988 0.873841,-0.989991 0.389254,-0.389576 0.779999,-0.717999 1.217316,-1.023165 0.107563,-0.07506 0.195569,-0.138687 0.195569,-0.141397 0,-0.0027 -0.04849,-0.03609 -0.107763,-0.07418 C 4.462317,32.911314 4.321193,32.815963 4.207976,32.737503 2.909256,31.837479 1.880558,30.489965 1.302616,28.931705 1.143245,28.502004 1.127553,28.436839 1.126784,28.201513 c -7.95e-4,-0.243406 0.03204,-0.38518 0.13474,-0.581812 0.09596,-0.183729 0.171968,-0.266902 0.510126,-0.558241 1.2225,-1.053238 2.652892,-2.03521 4.012192,-2.754393 0.162689,-0.08608 0.20243,-0.113605 0.194057,-0.134428 C 5.695848,23.471243 5.369382,22.389401 5.165445,21.480331 4.805544,19.876036 4.644319,18.259749 4.666198,16.475366 c 0.01307,-1.065793 0.02436,-1.220849 0.186588,-2.562351 0.05203,-0.430251 0.112817,-0.946043 0.135081,-1.146204 0.04804,-0.431887 0.0715,-0.553279 0.130043,-0.672836 0.06217,-0.12696 0.137183,-0.207844 0.250915,-0.270541 0.194503,-0.107223 0.375738,-0.137805 0.882376,-0.148893 0.453204,-0.0099 0.80011,0.0069 1.898342,0.09182 0.447788,0.03464 0.997377,0.07023 1.221308,0.07908 0.71828,0.0284 0.99685,0.0539 1.500736,0.137351 0.425312,0.07044 0.891656,0.184729 1.315068,0.32229 l 0.189549,0.06158 -0.01046,-0.128839 c -0.0058,-0.07086 -0.0173,-0.211457 -0.02565,-0.312435 -0.02005,-0.242334 -0.01967,-0.798034 7.31e-4,-1.077624 0.08896,-1.218944 0.476787,-2.460029 1.102544,-3.528221 0.343653,-0.58663 0.520403,-0.776979 0.8433,-0.908183 0.261789,-0.106375 0.476867,-0.114366 0.878697,-0.03265 1.676037,0.340854 3.385826,0.908873 5.021683,1.668285 1.100412,0.510842 2.013374,1.01261 2.841735,1.561829 0.193174,0.128078 0.354835,0.234735 0.359246,0.237015 0.0044,0.0023 0.03243,-0.08387 0.06226,-0.191435 0.07762,-0.279902 0.29814,-0.945193 0.424656,-1.281188 0.208427,-0.553526 0.408038,-1.01414 0.685202,-1.581148 0.728282,-1.489881 1.64895,-2.896508 2.788798,-4.260815 0.311743,-0.373133 0.413257,-0.483506 1.050923,-1.142638 0.242098,-0.250248 0.604209,-0.62532526 0.804689,-0.83350426 0.201,-0.208719 0.404335,-0.404942 0.453295,-0.437439 0.161008,-0.106872 0.352632,-0.142247 0.545956,-0.100786 0.124238,0.02664 0.49557,0.21948 0.751498,0.39026 0.284471,0.189826 0.711104,0.50923 1.237272,0.92630026 0.686674,0.544294 0.900109,0.70899 1.233535,0.951851 0.652352,0.47516 1.111455,0.885144 1.570245,1.402249 0.1137,0.128152 0.189225,0.220784 0.446451,0.547589 0.02442,0.03102 0.02846,0.02701 0.110683,-0.110022 0.613348,-1.022133 1.488109,-1.903217 2.547013,-2.565425 0.522906,-0.327011 1.145666,-0.62853226 1.694962,-0.82064926 0.168033,-0.05877 0.17727,-0.06015 0.40346,-0.0605 0.198849,-3.06e-4 0.248275,0.0049 0.350537,0.03703 0.284469,0.08933 0.428591,0.191735 0.760049,0.54005026 1.313573,1.380374 2.231854,2.599718 3.184065,4.227972 0.929984,1.590249 1.515223,2.979483 1.899887,4.50994 0.02757,0.109694 0.05229,0.201604 0.05493,0.204246 0.0026,0.0026 0.09728,-0.01339 0.210319,-0.03562 1.768782,-0.347931 3.895906,-0.434167 5.920917,-0.24004 0.82428,0.07902 1.002126,0.106482 2.219113,0.342664 0.40391,0.07839 0.89243,0.171847 1.0856,0.207687 0.5343,0.09913 0.64202,0.133586 0.78812,0.252095 0.0955,0.07744 0.17264,0.204146 0.21385,0.351128 0.032,0.11407 0.0345,0.159171 0.0343,0.602248 -3.5e-4,0.554085 -0.01,0.65729 -0.18173,2.02753 -0.0607,0.482935 -0.12522,1.054076 -0.14346,1.269201 -0.0678,0.799868 -0.16549,1.343199 -0.3602,2.003583 -0.0669,0.226965 -0.21505,0.653872 -0.28529,0.822187 -0.009,0.02096 0.0474,0.02401 0.44916,0.02447 0.60179,6.87e-4 1.01264,0.04282 1.56298,0.160266 1.16028,0.247618 2.28511,0.764927 3.26307,1.500695 0.31109,0.234047 0.46712,0.4688 0.53533,0.805395 0.0407,0.200884 0.0252,0.393758 -0.0571,0.710113 -0.34948,1.344042 -0.83179,2.671055 -1.43613,3.951289 -0.35189,0.745454 -0.89559,1.742627 -1.32117,2.423093 -0.0564,0.09024 -0.10029,0.170213 -0.0974,0.177718 0.003,0.0075 0.11294,0.09446 0.24465,0.193229 1.49244,1.119203 2.88488,2.508072 4.12131,4.110737 0.4344,0.563075 0.63096,0.850609 1.17866,1.724198 0.2092,0.333665 0.48607,0.771898 0.61527,0.973853 0.26305,0.41115 0.32736,0.527246 0.36,0.649892 0.0467,0.175394 0.0166,0.363854 -0.083,0.520288 -0.0795,0.124784 -0.32643,0.373669 -0.55691,0.561246 -0.32896,0.267722 -0.63359,0.483628 -1.6681,1.182266 -0.30293,0.204579 -0.70883,0.488128 -0.90201,0.630106 -0.40624,0.29858 -0.56194,0.404555 -0.83815,0.570459 -0.45418,0.272805 -0.96134,0.520812 -1.43652,0.702466 -0.13592,0.05196 -0.24982,0.09716 -0.2531,0.100449 -0.003,0.0033 0.0569,0.06928 0.13372,0.146662 1.02049,1.027773 1.75859,2.406536 2.074,3.874208 0.14692,0.683684 0.18834,1.163184 0.12242,1.417304 -0.0757,0.29186 -0.27127,0.56534 -0.51633,0.72205 -0.17396,0.11124 -0.94919,0.48222 -1.50515,0.72027 -0.77585,0.33221 -1.57372,0.62435 -2.3548,0.86223 -0.82217,0.25039 -2.07668,0.54862 -2.95748,0.70307 -0.17481,0.0306 -0.16417,0.0162 -0.13914,0.18934 0.16992,1.17544 0.21048,2.84653 0.10275,4.23249 -0.0746,0.95922 -0.2094,1.92147 -0.400454,2.8577 -0.06218,0.30473 -0.1038,0.46838 -0.3735,1.46876 -0.104159,0.38635 -0.233158,0.87043 -0.286665,1.07573 -0.12865,0.49362 -0.172272,0.59304 -0.317951,0.72465 -0.15081,0.13625 -0.299633,0.17755 -0.632533,0.17555 -0.442564,-0.003 -0.923993,-0.0809 -2.282967,-0.37121 -0.447813,-0.0956 -0.914783,-0.1921 -1.037712,-0.21433 -0.122929,-0.0222 -0.364748,-0.0656 -0.537374,-0.0963 -0.767332,-0.13664 -1.56263,-0.38914 -2.262135,-0.71821 -0.143609,-0.0676 -0.26413,-0.11981 -0.267824,-0.11611 -0.0037,0.004 -0.01387,0.12806 -0.02261,0.27637 -0.07373,1.25117 -0.423337,2.42079 -1.051958,3.51939 -0.327687,0.57267 -0.905321,1.34325 -1.173178,1.56504 -0.116637,0.0966 -0.345595,0.21179 -0.488126,0.24562 -0.106327,0.0252 -0.359647,0.0436 -0.431049,0.0313 z m 0.196314,-1.06613 c 0.08918,-0.0373 0.413936,-0.43106 0.68002,-0.82458 0.676083,-0.99988 1.080156,-2.09238 1.18981,-3.2169 0.06034,-0.61883 0.04866,-0.93329 -0.07088,-1.9074 -0.04447,-0.3624 -0.07817,-0.66159 -0.07489,-0.66488 0.0033,-0.003 0.24965,0.15813 0.54748,0.35871 0.771842,0.51978 1.061969,0.68941 1.545524,0.90361 0.688727,0.30508 1.25961,0.47205 2.131829,0.62349 0.428709,0.0744 0.71271,0.13173 1.579856,0.31867 0.780778,0.16833 1.506605,0.29595 1.683142,0.29595 0.05308,0 0.05309,-1e-5 0.08203,-0.12372 0.01592,-0.068 0.13567,-0.52062 0.266115,-1.00571 0.337359,-1.25456 0.366017,-1.37533 0.483972,-2.03958 0.215501,-1.21357 0.309528,-2.22062 0.323557,-3.46535 0.01072,-0.9511 -0.01483,-1.54668 -0.09958,-2.32189 -0.152333,-1.39326 -0.480952,-2.78707 -0.901486,-3.82357 -0.168986,-0.4165 -0.447765,-0.923271 -0.821156,-1.492709 -0.873458,-1.332061 -2.102261,-2.578127 -3.517173,-3.566584 -0.130859,-0.09142 -0.144833,-0.09402 -0.117401,-0.02187 0.02471,0.065 0.141372,0.583919 0.191199,0.850488 0.16204,0.866896 0.2321,1.686116 0.2321,2.714016 0,1.395719 -0.14566,2.640499 -0.477319,4.079069 -0.195679,0.84876 -0.377922,1.43599 -0.738214,2.3787 -0.135913,0.35561 -0.303408,0.79854 -0.37221,0.98428 -0.149729,0.40421 -0.213293,0.53504 -0.304072,0.62581 -0.153083,0.15309 -0.30089,0.20235 -0.565341,0.18841 -0.364872,-0.0192 -0.689007,-0.10748 -1.971653,-0.53685 -0.522448,-0.17489 -1.086213,-0.35828 -1.252809,-0.40753 -0.691349,-0.20437 -1.397528,-0.51909 -1.946984,-0.8677 -0.04327,-0.0275 -0.08188,-0.0467 -0.0858,-0.0428 -0.0039,0.004 -0.02445,0.10621 -0.04562,0.22731 -0.22743,1.30098 -0.86593,2.53338 -1.825395,3.52328 -0.482151,0.49744 -0.691012,0.61543 -1.090458,0.61604 -0.253619,3.8e-4 -0.331996,-0.0255 -0.824079,-0.27215 -0.812248,-0.40712 -1.641359,-0.89937 -2.362689,-1.40274 l -0.230129,-0.1606 -0.09076,0.28326 c -0.222324,0.69387 -0.478093,1.32254 -0.800215,1.96687 l -0.155296,0.31064 0.05812,0.0805 c 0.555186,0.7689 1.105104,1.41562 1.758809,2.06841 0.993252,0.99186 1.978904,1.75298 3.497198,2.70054 1.086051,0.6778 2.312903,1.29048 3.544287,1.76998 0.305191,0.11884 0.850174,0.31693 0.874485,0.31785 0.01126,4.3e-4 0.04369,-0.009 0.07207,-0.0208 z m -23.416207,-0.298 c 0.09609,-0.0177 0.472844,-0.0828 0.83724,-0.14459 1.546415,-0.26235 1.896127,-0.34 2.946608,-0.65427 2.079016,-0.62197 4.028533,-1.56254 5.650208,-2.72601 0.976031,-0.70026 1.809135,-1.46492 2.28313,-2.09555 0.884418,-1.17669 1.538925,-2.50657 1.963711,-3.99004 l 0.07461,-0.26055 -0.0529,-0.0414 c -0.348903,-0.273 -0.994609,-0.84052 -1.334563,-1.17299 -0.239226,-0.23395 -0.26162,-0.25182 -0.290034,-0.23148 -0.01694,0.0121 -0.140957,0.1051 -0.275599,0.20662 -1.500398,1.1313 -3.278524,2.00916 -5.305648,2.61939 -0.431224,0.12981 -1.175867,0.31704 -1.608665,0.40448 -0.330693,0.0668 -2.340892,0.36693 -2.590078,0.38669 -0.07649,0.006 -0.14323,8e-4 -0.211512,-0.0167 -0.318269,-0.0816 -0.453334,-0.26286 -0.627747,-0.8423 -0.09898,-0.32884 -0.155261,-0.59951 -0.414197,-1.99207 -0.04472,-0.24054 -0.109851,-0.5626 -0.144724,-0.7157 -0.168231,-0.73857 -0.205745,-1.04664 -0.217372,-1.78509 l -0.0088,-0.55937 -0.24948,0.084 c -0.488108,0.16443 -0.968424,0.26472 -1.518681,0.31711 -0.339879,0.0323 -1.021801,0.0245 -1.357008,-0.0157 -0.6182,-0.0741 -1.452409,-0.28231 -1.70101,-0.42455 -0.248167,-0.14198 -0.423662,-0.35783 -0.517555,-0.63655 -0.04439,-0.13177 -0.06085,-0.32345 -0.08019,-0.93422 -0.0089,-0.28025 -0.01817,-0.51157 -0.02065,-0.51406 -0.0025,-0.002 -0.100483,0.01 -0.217783,0.0268 -0.53281,0.0782 -1.193105,0.12672 -1.725858,0.12672 h -0.332169 l -0.02506,0.0678 c -0.04126,0.11169 -0.150759,0.46653 -0.225392,0.73039 -0.35764,1.26437 -0.60319,2.80027 -0.71338,4.46216 -0.02661,0.40131 -0.02651,1.95771 1.44e-4,2.36279 0.05046,0.76672 0.103188,1.27288 0.138157,1.32625 0.03975,0.0607 0.08304,0.0806 0.304031,0.13983 0.416984,0.11181 0.765286,0.1784 1.19736,0.22892 0.299006,0.035 1.144524,0.04 1.436832,0.009 0.744517,-0.08 1.400638,-0.25386 2.060251,-0.54587 0.30674,-0.1358 0.53375,-0.26314 1.164639,-0.65331 0.298542,-0.18463 0.544705,-0.33024 0.547028,-0.32357 0.0023,0.007 -0.03903,0.29787 -0.0919,0.64713 -0.124067,0.81961 -0.144257,1.03695 -0.14479,1.55875 -8.62e-4,0.8463 0.08519,1.42524 0.352838,2.37368 0.09966,0.35314 0.187699,0.70554 0.390161,1.56164 0.15369,0.64987 0.260664,1.05266 0.362521,1.36499 0.07413,0.22732 0.10276,0.30333 0.114245,0.30333 0.0024,0 0.08296,-0.0145 0.179043,-0.0322 z m 18.330015,-8.61681 c 1.031252,-1.02849 1.638544,-2.36437 1.694054,-3.72645 0.006,-0.14639 0.0057,-0.55197 -5.27e-4,-0.90129 -0.0063,-0.34933 -0.0098,-0.6367 -0.0079,-0.63861 0.0019,-0.002 0.226145,0.18708 0.498294,0.41999 0.272147,0.23292 0.594361,0.49824 0.716029,0.58961 0.604402,0.45391 1.367528,0.83687 2.077717,1.04268 0.122929,0.0356 0.665333,0.21169 1.205343,0.39127 1.023511,0.34036 1.211364,0.39997 1.436832,0.45591 0.07464,0.0185 0.147625,0.0372 0.162197,0.0415 0.01947,0.006 0.03169,-0.008 0.04607,-0.0527 0.01076,-0.0333 0.14849,-0.39814 0.30606,-0.81083 0.341819,-0.89526 0.397925,-1.05559 0.533538,-1.52464 0.372244,-1.28748 0.58642,-2.50706 0.678482,-3.86348 0.02483,-0.36591 0.02511,-1.465043 4.63e-4,-1.819987 -0.07468,-1.075223 -0.245305,-2.06526 -0.466459,-2.70663 -0.230532,-0.668566 -0.682229,-1.540793 -1.161293,-2.242459 -0.92874,-1.360284 -2.338408,-2.685444 -3.877769,-3.645302 -0.301347,-0.187903 -1.006932,-0.581284 -1.016833,-0.566909 -0.0021,0.003 -0.01655,0.124024 -0.03215,0.268905 -0.04504,0.418188 -0.118013,0.811243 -0.233182,1.255935 -0.271081,1.0467 -0.782211,1.954136 -1.611829,2.861563 -0.132709,0.145157 -0.200968,0.238327 -0.316839,0.43247 -0.276571,0.463398 -0.514818,0.767922 -0.912581,1.166443 -0.512887,0.513864 -0.995898,0.863765 -1.652805,1.197317 l -0.239472,0.121595 -0.01048,0.397705 c -0.03558,1.349765 -0.290434,2.806724 -0.724042,4.139254 -0.313515,0.96347 -0.758001,1.90881 -1.285243,2.73347 -0.326479,0.51065 -0.757268,1.07319 -1.060805,1.38524 l -0.176245,0.1812 0.144173,0.1381 c 1.169615,1.12039 2.478183,2.10592 3.815098,2.87329 0.397308,0.22805 1.169307,0.62469 1.216658,0.6251 0.0242,2.1e-4 0.1043,-0.0686 0.255437,-0.21928 z m -14.896176,-0.30729 c 1.002719,-0.14365 0.985662,-0.1409 1.346707,-0.21758 1.087749,-0.23102 2.264625,-0.60052 3.248838,-1.02002 1.55584,-0.66316 2.916103,-1.51579 4.003,-2.50914 0.237256,-0.21684 0.381276,-0.3703 0.581486,-0.6196 0.95317,-1.18687 1.622555,-2.55866 2.033261,-4.16681 0.255255,-0.999477 0.384662,-1.836949 0.439447,-2.843913 l 0.01054,-0.193755 -0.18126,0.04412 c -1.694162,0.412393 -3.492061,0.200757 -5.092788,-0.599488 -0.759924,-0.379907 -1.389857,-0.823878 -1.986522,-1.400085 -0.180055,-0.17388 -0.454119,-0.467205 -0.560093,-0.599454 l -0.02951,-0.03682 -0.189865,0.07338 c -0.790234,0.305418 -1.708408,0.553046 -2.48408,0.669947 -1.696043,0.255607 -3.166975,0.235142 -4.645757,-0.06464 -0.663692,-0.134545 -1.428376,-0.365185 -1.876428,-0.56596 -0.119731,-0.05365 -0.220249,-0.09499 -0.223375,-0.09187 -0.01747,0.01746 -0.245815,0.532029 -0.343871,0.774876 -0.413763,1.024745 -0.689278,2.034717 -0.915753,3.356916 -0.19263,1.124616 -0.267392,2.018006 -0.265862,3.176996 9.58e-4,0.72769 0.01935,1.14268 0.05207,1.17477 0.02938,0.0288 0.408616,0.14084 0.673201,0.19884 0.507679,0.11127 0.937325,0.15219 1.447224,0.13783 0.745882,-0.021 1.394167,-0.16358 2.059459,-0.4529 0.245971,-0.10697 0.335852,-0.15564 1.001908,-0.54256 0.292022,-0.16964 0.533451,-0.30844 0.53651,-0.30844 0.0031,0 -0.04389,0.24606 -0.104335,0.5468 -0.221422,1.10168 -0.244697,1.30183 -0.231608,1.99161 0.01121,0.59095 0.04866,0.87975 0.201591,1.55489 0.03559,0.15714 0.10092,0.48042 0.14517,0.71842 0.23091,1.24197 0.284239,1.50509 0.367918,1.81521 0.02639,0.0978 0.04047,0.12619 0.06256,0.12619 0.01568,0 0.429777,-0.0575 0.920218,-0.12776 z m 31.416408,-5.63621 c 0.45689,-0.0831 0.98944,-0.20093 1.62826,-0.36035 1.11336,-0.27784 2.21035,-0.65072 3.29689,-1.12063 0.59283,-0.25639 1.26943,-0.58561 1.32408,-0.64428 0.0407,-0.0437 0.0426,-0.12734 0.009,-0.3917 -0.15224,-1.193177 -0.62073,-2.355864 -1.33032,-3.301538 -0.19651,-0.261893 -0.34648,-0.433623 -0.60034,-0.687444 -0.31824,-0.318195 -0.5175,-0.480776 -1.17042,-0.95496 -0.30073,-0.218415 -0.54678,-0.401603 -0.54677,-0.407087 10e-6,-0.0055 0.30971,-0.07677 0.68821,-0.15842 0.92374,-0.199267 1.2486,-0.294704 1.81824,-0.534162 0.60249,-0.253264 1.12954,-0.562663 1.78806,-1.049657 0.16244,-0.12013 0.5001,-0.357294 0.75035,-0.527028 1.23075,-0.834782 1.43799,-0.980439 1.71412,-1.204779 0.0867,-0.0704 0.17176,-0.139331 0.18912,-0.153178 0.0308,-0.02456 0.0289,-0.02924 -0.0763,-0.191577 -0.0593,-0.09152 -0.30167,-0.475322 -0.53854,-0.85289 -0.55118,-0.87856 -0.65339,-1.034423 -0.89218,-1.360405 -0.69608,-0.950275 -1.33937,-1.700145 -2.17534,-2.535749 -0.67061,-0.670322 -1.11789,-1.069576 -1.77543,-1.584806 -1.20789,-0.946469 -2.57422,-1.756071 -3.71278,-2.199965 -0.37578,-0.146505 -0.837841,-0.274091 -1.409553,-0.389215 -0.59664,-0.120143 -1.01644,-0.173841 -1.799388,-0.230168 l -0.123085,-0.0089 -0.156262,0.235223 c -0.08594,0.129373 -0.158601,0.244203 -0.161462,0.255179 -0.0029,0.01098 0.0082,0.01996 0.02463,0.01996 0.04797,0 0.507064,0.119269 0.706892,0.183643 0.780435,0.251415 1.531831,0.664624 2.208898,1.214718 0.37101,0.30143 0.96181,0.922879 1.11294,1.170659 0.15705,0.257495 0.1933,0.598225 0.0967,0.908653 -0.0375,0.120605 -0.20398,0.428409 -0.4935,0.912647 -0.59285,0.991593 -1.315153,1.985156 -2.050351,2.820376 -1.440557,1.636545 -2.649731,2.652898 -4.227285,3.553182 -0.361953,0.206559 -0.914488,0.491408 -1.200186,0.61873 l -0.154491,0.06885 0.266245,0.158925 c 0.548612,0.327471 1.351759,0.882223 1.886672,1.303165 1.388223,1.092443 2.527557,2.371651 3.371699,3.785635 0.188715,0.316107 0.416025,0.733253 0.501376,0.920103 0.289291,0.63331 0.605046,1.6417 0.796678,2.54426 0.05522,0.26009 0.04815,0.24356 0.09972,0.23315 0.0242,-0.005 0.16604,-0.0311 0.31531,-0.0582 z m -41.00559,-2.09105 c 0.369017,-0.0226 0.704503,-0.0576 1.085173,-0.11331 0.179765,-0.0263 0.328372,-0.0493 0.330239,-0.0512 0.0019,-0.002 0.01476,-0.15772 0.02865,-0.34634 0.06004,-0.815368 0.14842,-1.480693 0.313831,-2.362491 0.279235,-1.488584 0.651246,-2.674872 1.218664,-3.886131 0.05986,-0.127794 0.07019,-0.16196 0.0535,-0.177048 -0.01138,-0.01028 -0.08893,-0.06074 -0.172349,-0.112118 -1.67738,-1.033209 -3.305689,-2.562228 -4.649378,-4.365872 -0.539522,-0.724205 -0.86636,-1.235328 -1.340455,-2.096258 -0.184684,-0.335378 -0.416762,-0.753459 -0.515728,-0.929072 -0.230809,-0.40956 -0.258956,-0.466565 -0.28982,-0.586951 -0.03117,-0.121569 -0.02176,-0.272952 0.02421,-0.389579 l 0.03232,-0.08201 -0.162791,-0.133224 C 8.765244,28.429452 7.990826,27.618903 7.335017,26.740696 7.019019,26.317536 6.803508,25.964647 6.545285,25.447547 6.472935,25.302666 6.411375,25.181551 6.408483,25.178399 6.396473,25.165319 5.692355,25.558911 5.283764,25.807093 4.32414,26.389981 3.332643,27.111165 2.454038,27.865347 2.226353,28.06079 2.170703,28.124849 2.170703,28.1915 c 0,0.04793 0.135462,0.427036 0.241742,0.676539 0.191558,0.449701 0.378971,0.795106 0.660482,1.217283 0.643016,0.964315 1.479984,1.718247 2.474332,2.228849 0.149271,0.07665 0.533623,0.252003 0.854117,0.38967 0.320493,0.137666 0.585297,0.252777 0.588453,0.255801 0.0032,0.003 -0.273561,0.145186 -0.614928,0.315912 -0.634512,0.317337 -0.82444,0.420208 -1.091061,0.59095 -0.736257,0.471491 -1.359294,1.040015 -1.979717,1.806498 -0.219258,0.270877 -0.356134,0.429019 -0.925795,1.069642 -0.661571,0.743981 -0.891168,1.016177 -1.12308,1.331455 l -0.122124,0.166026 0.738615,0.743968 c 0.874067,0.880403 1.022409,1.025125 1.296764,1.265124 1.877486,1.642381 3.845714,2.856349 5.954053,3.672355 1.12508,0.43545 2.44351,0.77232 3.233691,0.82624 0.274382,0.0187 0.993881,0.0192 1.293149,8.5e-4 z m 20.019862,-4.685735 c 2.374857,-0.26215 4.205419,-1.769114 4.741102,-3.902995 0.124031,-0.494071 0.160522,-0.770181 0.170907,-1.293149 0.01146,-0.576938 -0.02617,-0.926864 -0.154504,-1.436832 -0.289361,-1.149867 -0.985303,-2.141054 -1.951878,-2.779942 -1.247946,-0.824869 -2.733117,-0.991682 -4.074829,-0.457682 -1.368841,0.544797 -2.379059,1.810284 -2.545976,3.189311 -0.02394,0.197743 -0.02,0.577648 0.0082,0.79385 0.132415,1.014485 0.724109,1.925224 1.606133,2.472167 0.851628,0.528096 1.843701,0.642893 2.727667,0.315629 0.779265,-0.2885 1.38207,-0.854918 1.704483,-1.601592 0.240049,-0.55593 0.207991,-1.169278 -0.09305,-1.780164 -0.271296,-0.550531 -0.734269,-0.951665 -1.255782,-1.088044 -0.126074,-0.03297 -0.19447,-0.04095 -0.355653,-0.04149 -0.232958,-7.82e-4 -0.367832,0.02932 -0.582894,0.130102 -0.62395,0.292392 -1.078872,1.003742 -0.940307,1.470337 0.02775,0.09345 0.04809,0.129695 0.136543,0.24328 0.206979,0.265801 0.123365,0.651388 -0.172879,0.797229 -0.09536,0.04695 -0.123253,0.05322 -0.236503,0.05322 -0.113379,0 -0.141094,-0.0063 -0.237047,-0.05349 -0.09192,-0.04525 -0.124513,-0.07353 -0.211596,-0.183595 -0.45863,-0.57966 -0.476139,-1.370497 -0.04701,-2.123513 0.519726,-0.912001 1.558063,-1.485321 2.507221,-1.384366 0.684199,0.07277 1.240813,0.351302 1.749982,0.875687 0.374087,0.385267 0.627105,0.810041 0.79416,1.333251 0.207512,0.649927 0.210452,1.320533 0.0084,1.927166 -0.06753,0.202794 -0.238013,0.559772 -0.365669,0.765673 -0.214601,0.346143 -0.55286,0.731919 -0.861448,0.982468 -0.954565,0.775025 -2.230355,1.083864 -3.424846,0.829074 -0.880022,-0.187711 -1.764908,-0.700317 -2.369099,-1.372395 -0.604815,-0.672771 -0.979831,-1.464825 -1.122253,-2.370251 -0.04094,-0.260245 -0.04115,-0.984205 -3.68e-4,-1.237272 0.210009,-1.303047 0.915322,-2.451964 2.000773,-3.259155 0.781061,-0.580832 1.715728,-0.935702 2.708729,-1.02844 0.291623,-0.02723 0.930424,-0.01092 1.20886,0.03087 1.67552,0.251491 3.165151,1.23741 4.03144,2.668228 0.504754,0.833684 0.815285,1.843971 0.86427,2.811828 0.0058,0.114654 0.01584,0.198819 0.02232,0.187034 0.04379,-0.07975 0.188086,-0.843389 0.233317,-1.234751 0.03987,-0.344934 0.03996,-1.156805 1.76e-4,-1.476745 -0.154683,-1.243782 -0.600409,-2.289679 -1.402538,-3.291054 -0.394861,-0.492942 -0.971055,-1.050511 -1.490695,-1.442509 -0.06984,-0.05268 -0.132268,-0.103955 -0.138734,-0.113938 -0.016,-0.0247 -0.286391,-0.17663 -0.534546,-0.300359 -1.492936,-0.74437 -3.179689,-0.877048 -4.746031,-0.373319 -0.733937,0.236032 -1.391891,0.582567 -2.027348,1.067774 -0.978256,0.746955 -1.83193,1.781551 -2.410022,2.920784 -0.469828,0.925881 -0.711638,1.749941 -0.784678,2.674105 -0.02558,0.32372 -0.0096,0.946955 0.03233,1.261508 0.137243,1.029265 0.476977,1.948918 1.034928,2.801534 0.937445,1.432526 2.409174,2.473697 4.07165,2.880477 0.372414,0.09112 0.686199,0.137273 1.192692,0.175411 0.164656,0.0124 0.758767,-0.0063 0.981835,-0.03096 z m -10.345192,-1.93727 c 0.953169,-0.09622 1.589986,-0.216499 2.330861,-0.440263 0.252626,-0.0763 0.750346,-0.251503 0.750346,-0.264129 0,-0.0057 -0.05142,-0.09964 -0.11427,-0.208782 -0.440481,-0.764913 -0.756371,-1.652395 -0.905959,-2.54526 -0.07543,-0.450243 -0.08866,-0.630533 -0.089,-1.213325 -3.35e-4,-0.564064 0.007,-0.679047 0.07144,-1.117536 0.143524,-0.97695 0.510388,-1.985404 1.083158,-2.977436 0.08047,-0.139377 0.09355,-0.172053 0.07759,-0.193873 -0.01056,-0.01443 -0.097,-0.118604 -0.192109,-0.23149 -1.064131,-1.263081 -1.919552,-2.873059 -2.399328,-4.515743 -0.361984,-1.239384 -0.530745,-2.476451 -0.514424,-3.770878 0.006,-0.472972 0.0055,-0.482278 -0.02616,-0.489923 -0.233089,-0.05636 -1.703558,-0.06969 -2.283275,-0.0207 -0.841781,0.07113 -1.472842,0.159136 -2.610245,0.364002 -1.404489,0.252975 -2.646286,0.614639 -3.932357,1.14527 -0.191543,0.07903 -0.365413,0.154931 -0.386379,0.168669 -0.03655,0.02395 -0.03778,0.03072 -0.02991,0.164803 0.07752,1.320836 0.525009,2.486808 1.322454,3.445809 0.245398,0.295114 0.508825,0.540495 1.095351,1.020306 0.310068,0.253655 0.557047,0.463217 0.548841,0.465696 -0.0082,0.0025 -0.316652,0.05096 -0.685439,0.107739 -0.368787,0.05678 -0.75314,0.121174 -0.854117,0.143105 -0.580192,0.12601 -1.22739,0.368183 -1.759119,0.658238 -0.223517,0.121927 -0.295555,0.165506 -0.635601,0.384503 -0.1361,0.08765 -0.445019,0.276584 -0.686487,0.419852 -0.924458,0.548501 -1.11746,0.666205 -1.370346,0.835713 -0.143436,0.09614 -0.264574,0.184661 -0.269197,0.196707 -0.0046,0.01205 -0.0013,0.03079 0.0074,0.04165 0.0087,0.01086 0.220499,0.390381 0.470684,0.843371 0.475124,0.860268 0.551296,0.987605 0.897721,1.500731 1.155438,1.711441 2.570092,3.181227 4.143186,4.304649 0.601488,0.429552 1.342461,0.864727 1.883847,1.106385 0.646118,0.288405 1.702579,0.550706 2.634192,0.654019 0.496686,0.05508 0.652622,0.06139 1.388938,0.05618 0.574557,-0.0041 0.773028,-0.01134 1.037712,-0.03806 z m 23.80352,-1.199539 c 0.305329,-0.139804 0.664575,-0.322497 0.981473,-0.499125 1.535364,-0.855754 2.705677,-1.830601 4.096942,-3.41267 0.819767,-0.932193 1.599148,-2.03651 2.207805,-3.128269 0.0756,-0.135567 0.13741,-0.252021 0.13741,-0.258783 0,-0.02413 -0.297732,-0.359279 -0.477916,-0.53797 -0.624808,-0.619634 -1.365739,-1.085814 -2.168727,-1.364521 -0.348451,-0.120943 -0.796979,-0.222142 -1.176924,-0.265544 -0.116912,-0.01336 -0.828374,-0.04677 -1.44481,-0.06787 l -0.119731,-0.0041 0.482854,-0.507491 c 0.26557,-0.279119 0.54575,-0.584508 0.622622,-0.678643 0.504974,-0.618364 0.878572,-1.300357 1.169315,-2.134545 0.1123,-0.322206 0.239306,-0.654376 0.479182,-1.253237 0.299806,-0.748482 0.514155,-1.361052 0.485552,-1.387619 -0.03901,-0.03623 -1.781729,-0.796206 -2.082145,-0.907995 -2.374784,-0.883682 -4.91278,-1.243885 -7.160155,-1.016203 -0.670294,0.06791 -1.241575,0.178832 -1.668322,0.323929 -0.8942,0.304037 -1.794811,0.761496 -2.59428,1.317742 -1.31371,0.914039 -2.632512,2.293974 -3.528214,3.691768 l -0.152045,0.237273 0.06006,0.01853 c 0.400033,0.123443 0.523275,0.164865 0.71461,0.240184 0.122929,0.04839 0.345638,0.147731 0.494909,0.220754 0.293233,0.14345 0.890842,0.494709 1.009443,0.593325 0.04024,0.03346 0.146747,0.118373 0.236691,0.188701 0.46591,0.364307 1.080834,0.95196 1.428179,1.364839 1.041954,1.238544 1.628266,2.582597 1.781975,4.084973 l 0.02791,0.27275 0.144639,0.06767 c 1.010869,0.472944 2.053569,1.133332 2.946464,1.866124 1.098615,0.901627 2.01939,1.892372 2.696109,2.900995 0.115577,0.172261 0.07732,0.168633 0.369133,0.03502 z M 10.828859,28.395079 c 0.119675,-0.0751 0.499723,-0.303172 0.844551,-0.506838 0.344827,-0.203665 0.727537,-0.435011 0.850466,-0.514103 0.539738,-0.347264 0.853819,-0.526042 1.237273,-0.704272 0.240193,-0.111641 0.651008,-0.273936 0.869915,-0.343664 0.08772,-0.02794 0.162181,-0.0535 0.16548,-0.0568 0.0033,-0.0033 -0.04773,-0.06923 -0.113401,-0.146511 -0.774591,-0.911566 -1.308164,-2.092085 -1.503061,-3.325491 -0.07907,-0.500383 -0.101802,-1.032996 -0.05179,-1.213325 0.04015,-0.144762 0.106607,-0.27826 0.199827,-0.401399 0.160628,-0.212185 0.309653,-0.299422 0.96135,-0.562758 1.18396,-0.478411 2.368575,-0.833984 3.574473,-1.072911 1.355399,-0.268549 2.541306,-0.430062 3.576275,-0.487069 0.538624,-0.02967 1.672658,-0.0062 2.0211,0.0418 l 0.06541,0.009 0.02765,-0.172233 c 0.275431,-1.71565 1.010668,-3.69381 1.946558,-5.237231 0.04712,-0.07771 0.09367,-0.156233 0.103444,-0.174493 0.01626,-0.03039 -0.106019,-0.153277 -1.44476,-1.451914 C 22.839638,10.794426 22.679294,10.644132 22.514476,10.532844 21.854546,10.087245 21.22464,9.729091 20.314696,9.282088 19.681268,8.970922 19.389735,8.837061 18.909793,8.637013 17.871928,8.204411 16.8977,7.881456 15.804639,7.607659 15.334738,7.489956 14.80661,7.375384 14.733947,7.375384 c -0.07174,0 -0.128365,0.06448 -0.29439,0.33526 -0.935199,1.52527 -1.27051,3.31363 -0.933922,4.981019 0.0257,0.127319 0.124784,0.522448 0.220185,0.878064 0.0954,0.355616 0.17185,0.64883 0.169887,0.651588 -0.002,0.0028 -0.311428,-0.145721 -0.687701,-0.329952 -0.840074,-0.411317 -1.155588,-0.538503 -1.725933,-0.695735 -0.639597,-0.176324 -1.167202,-0.251618 -2.023443,-0.288763 -0.307322,-0.01333 -0.928752,-0.05261 -1.380955,-0.08729 -0.452203,-0.03468 -0.950503,-0.07046 -1.107334,-0.07952 -0.334349,-0.01931 -0.898998,-0.02189 -0.90996,-0.0042 -0.0042,0.0068 -0.01941,0.116334 -0.03383,0.243463 -0.01442,0.12713 -0.06142,0.522103 -0.104431,0.877719 -0.159058,1.314957 -0.163387,1.361177 -0.192902,2.05946 -0.02033,0.48099 -0.0108,1.639888 0.017,2.067442 0.122181,1.879154 0.40745,3.42088 0.921647,4.981018 0.304821,0.924863 0.73121,1.902854 1.112761,2.552293 0.392819,0.668618 1.19502,1.618261 1.949416,2.307709 0.377948,0.345409 0.835262,0.722822 0.863683,0.712782 0.0097,-0.0034 0.115464,-0.06764 0.23514,-0.142738 z M 27.243424,28.08211 c 0.134764,-0.0629 0.151116,-0.07606 0.263419,-0.212016 0.06585,-0.07972 0.245459,-0.274031 0.39912,-0.431794 0.478082,-0.490842 0.922255,-0.86459 1.436833,-1.209017 0.247486,-0.165651 0.855625,-0.528405 1.061659,-0.633276 0.746126,-0.379781 1.560459,-0.615538 2.450597,-0.709474 0.178999,-0.01889 0.871113,-0.02822 1.124321,-0.01516 l 0.126521,0.0065 0.152863,-0.254399 c 0.341275,-0.567957 0.775605,-1.185773 1.16409,-1.65586 l 0.103394,-0.125113 0.02907,-0.226112 c 0.298582,-2.322493 1.12265,-4.536337 2.484819,-6.675425 0.549493,-0.862895 1.158202,-1.631779 1.859192,-2.348416 l 0.219726,-0.224628 -0.178337,-0.254316 c -0.350174,-0.499334 -0.758798,-1.025842 -1.145237,-1.475598 -0.292519,-0.340447 -0.387182,-0.444563 -0.413329,-0.454596 -0.04771,-0.01831 -0.470821,0.157365 -0.841424,0.349345 -0.570625,0.295596 -1.035991,0.635704 -1.485773,1.085864 -0.461463,0.461849 -0.795016,0.92725 -1.076424,1.501913 -0.125177,0.255625 -0.162322,0.346122 -0.456984,1.113366 -0.0868,0.226003 -0.161406,0.410911 -0.165797,0.410907 -0.0044,-5e-6 -0.144481,-0.263705 -0.311313,-0.586 -0.423182,-0.817527 -0.597409,-1.102254 -0.926474,-1.514068 -0.37105,-0.464359 -0.699372,-0.787538 -1.244739,-1.225241 -0.175613,-0.140944 -0.519604,-0.429168 -0.764422,-0.640498 -0.861652,-0.743785 -1.15562,-0.986814 -1.399412,-1.156925 l -0.07778,-0.05427 -0.116465,0.125662 c -0.06406,0.06912 -0.332516,0.355759 -0.596581,0.636989 -0.681567,0.725875 -0.716498,0.764865 -0.987344,1.102025 -0.87285,1.08656 -1.527925,2.097793 -2.119173,3.271349 -0.434761,0.862948 -0.839421,1.881955 -1.008886,2.54056 -0.355003,1.379675 -0.428401,3.033881 -0.193455,4.359951 0.280675,1.584168 0.782919,3.062681 1.383842,4.073793 0.351546,0.591509 1.04375,1.595864 1.087806,1.578355 0.01012,-0.004 0.08305,-0.03749 0.162078,-0.07437 z m 30.796471,-1.246179 c 0.13538,-0.211219 0.45156,-0.757482 0.66959,-1.156882 0.8155,-1.493866 1.3989,-2.913421 1.85024,-4.502101 0.14954,-0.526363 0.17743,-0.646196 0.1634,-0.702081 -0.0135,-0.0539 -0.0637,-0.09949 -0.27701,-0.251516 -1.35816,-0.968125 -2.95033,-1.4418 -4.49271,-1.336597 -0.34089,0.02325 -0.5895,0.06147 -1.30019,0.199897 -0.33921,0.06607 -0.619157,0.117705 -0.622111,0.114752 -0.003,-0.003 0.124138,-0.23497 0.282431,-0.51559 0.38117,-0.675758 0.44029,-0.787533 0.56243,-1.063363 0.29169,-0.658677 0.49683,-1.375441 0.60019,-2.097015 0.0176,-0.122929 0.0468,-0.395927 0.0649,-0.606662 0.0392,-0.456831 0.0544,-0.59081 0.1678,-1.484727 0.0479,-0.377568 0.10168,-0.826578 0.1195,-0.9978 0.0313,-0.300702 0.0612,-0.894029 0.045,-0.894029 -0.0198,0 -0.50787,-0.0922 -1.10049,-0.20788 -1.255187,-0.245024 -1.519096,-0.287093 -2.249247,-0.358548 -1.305647,-0.127776 -2.624856,-0.135785 -3.879447,-0.02355 -1.829971,0.163706 -3.610235,0.5965 -5.02093,1.220622 -0.447466,0.197969 -0.679497,0.327414 -1.138918,0.635375 -0.619701,0.415401 -1.10231,0.811076 -1.668719,1.368127 -0.926944,0.91163 -1.614947,1.818892 -2.336602,3.081254 -0.559989,0.979564 -0.955168,1.866603 -1.294449,2.905594 -0.134663,0.412382 -0.354335,1.209359 -0.354335,1.28554 0,0.01063 0.02931,-0.01426 0.321349,-0.272915 1.190677,-1.054555 2.543273,-1.850012 3.985118,-2.343634 1.051561,-0.360007 2.736881,-0.525218 4.32982,-0.42445 1.578531,0.09985 3.08486,0.39753 4.638446,0.916632 0.719063,0.24026 0.825382,0.283546 2.179195,0.88721 0.162442,0.07243 0.409858,0.181285 0.549812,0.241894 0.408061,0.176714 0.530193,0.267037 0.622093,0.460069 0.04759,0.09995 0.04937,0.111404 0.0485,0.311313 -10e-4,0.239139 -0.03131,0.383283 -0.1687,0.803405 -0.110092,0.33664 -0.177607,0.516546 -0.492345,1.311932 -0.147668,0.373177 -0.299133,0.764714 -0.336588,0.870081 -0.03745,0.105368 -0.114124,0.316257 -0.170375,0.468641 -0.05625,0.152384 -0.09948,0.279853 -0.09607,0.283263 0.0034,0.0034 0.08109,0.01355 0.172613,0.02252 0.91719,0.08994 1.918589,0.283712 2.602229,0.503528 0.74046,0.238088 1.81679,0.763881 2.72081,1.329127 0.11415,0.07137 0.21298,0.130019 0.21962,0.130326 0.007,3.03e-4 0.0445,-0.04999 0.0841,-0.111763 z M 25.037288,24.364946 c -0.04967,-0.159604 -0.09337,-0.287119 -0.09713,-0.283362 -0.0038,0.0038 6.39e-4,0.03066 0.0098,0.05978 0.0091,0.02912 0.04993,0.159545 0.09067,0.289819 0.04075,0.130274 0.07699,0.233958 0.08054,0.230407 0.0036,-0.0036 -0.03418,-0.137042 -0.08385,-0.296647 z m -0.1099,-0.361061 c -0.0059,-0.0234 -0.01376,-0.03946 -0.01752,-0.0357 -0.0038,0.0038 -0.002,0.02599 0.0038,0.04938 0.0059,0.0234 0.01375,0.03946 0.01752,0.0357 0.0038,-0.0038 0.002,-0.02599 -0.0038,-0.04938 z m 9.592435,-11.189036 c 0.383073,-0.560761 0.93386,-1.134609 1.511252,-1.574521 0.548612,-0.417985 1.187911,-0.768722 1.844907,-1.012164 0.234649,-0.08695 0.386684,-0.114322 0.560649,-0.10095 0.260145,0.02 0.494851,0.123345 0.686424,0.302252 0.324748,0.30328 1.192322,1.373467 1.665672,2.054674 0.06406,0.0922 0.118213,0.169641 0.12033,0.172098 0.0021,0.0025 0.06051,-0.04113 0.129762,-0.09687 0.525987,-0.42331 1.194228,-0.873353 1.642569,-1.106229 0.46509,-0.241576 1.055861,-0.484473 1.706923,-0.701808 0.345976,-0.115492 0.531898,-0.172052 0.94587,-0.287748 l 0.08246,-0.02305 -0.08516,-0.331218 C 45.013229,8.871476 44.513459,7.659846 43.798813,6.393559 42.987501,4.955987 42.220144,3.8609 41.236991,2.73762 41.00928,2.477452 40.569456,2.00345 40.410018,1.846382 40.253071,1.691769 40.242697,1.691378 39.901277,1.827202 38.511948,2.3799 37.358491,3.294568 36.598981,4.445854 c -0.284604,0.43141 -0.415498,0.699385 -0.736378,1.507553 -0.127496,0.32111 -0.236719,0.588777 -0.242717,0.594816 -0.006,0.006 -0.104072,-0.155605 -0.217939,-0.359208 C 35.040175,5.542137 34.962238,5.408534 34.822795,5.1962 34.354723,4.483454 33.746563,3.84286 33.030663,3.30849 32.374136,2.81844 32.184048,2.672886 31.65769,2.257188 31.345977,2.011008 30.986817,1.73103 30.859557,1.635013 30.63089,1.462485 30.149766,1.133158 30.126381,1.133158 c -0.01154,0 -1.441198,1.476278 -1.638832,1.692269 -0.334264,0.365312 -0.90863,1.086928 -1.308628,1.644118 -1.419965,1.977989 -2.444189,4.169992 -2.903469,6.213891 -0.0043,0.01896 0.286645,0.31124 0.954082,0.958602 0.528116,0.512231 0.991718,0.959663 1.030225,0.994295 l 0.07001,0.06296 0.02578,-0.03888 c 0.07617,-0.114911 0.520842,-0.701333 0.720801,-0.950575 0.306829,-0.38245 0.386993,-0.472466 1.052083,-1.181395 0.313032,-0.333664 0.658684,-0.702969 0.768118,-0.820677 0.294385,-0.316642 0.427453,-0.39425 0.669368,-0.390386 0.342644,0.0055 0.751551,0.282905 1.972036,1.33797 0.634556,0.548551 0.72647,0.625963 1.037712,0.873995 0.59835,0.476832 1.051788,0.939064 1.496633,1.525655 l 0.160515,0.21166 0.07924,-0.131836 c 0.04358,-0.07251 0.137077,-0.216503 0.207767,-0.319984 z"
       id="path6147" /></g></svg>
