<svg width="122" height="61" viewBox="0 0 122 61" fill="none" xmlns="http://www.w3.org/2000/svg">
<rect width="122" height="61" fill="white"/>
<rect x="23" y="8" width="15" height="45" fill="#FF4F00"/>
<rect x="8" y="23" width="15" height="15" fill="#FF4F00"/>
<rect x="0.25" y="0.25" width="7.05955" height="7.05955" fill="white" stroke="black" stroke-width="0.5"/>
<rect x="7.80859" y="0.25" width="7.05955" height="7.05955" fill="white" stroke="black" stroke-width="0.5"/>
<rect x="15.3672" y="0.25" width="7.05955" height="7.05955" fill="white" stroke="black" stroke-width="0.5"/>
<rect x="22.9297" y="0.25" width="7.05955" height="7.05955" fill="white" stroke="black" stroke-width="0.5"/>
<rect x="30.4883" y="0.25" width="7.05955" height="7.05955" fill="white" stroke="black" stroke-width="0.5"/>
<rect x="38.0469" y="0.25" width="7.05955" height="7.05955" fill="white" stroke="black" stroke-width="0.5"/>
<rect x="45.6055" y="0.25" width="7.05955" height="7.05955" fill="white" stroke="black" stroke-width="0.5"/>
<rect x="53.168" y="0.25" width="7.05955" height="7.05955" fill="white" stroke="black" stroke-width="0.5"/>
<rect x="0.25" y="7.80859" width="7.05955" height="7.05955" fill="white" stroke="black" stroke-width="0.5"/>
<rect x="7.80859" y="7.80859" width="7.05955" height="7.05955" fill="white" stroke="black" stroke-width="0.5"/>
<rect x="15.3672" y="7.80859" width="7.05955" height="7.05955" fill="white" stroke="black" stroke-width="0.5"/>
<rect x="22.9297" y="7.80859" width="7.05955" height="7.05955" fill="#FF4F00" stroke="black" stroke-width="0.5"/>
<rect x="30.4883" y="7.80859" width="7.05955" height="7.05955" fill="#FF4F00" stroke="black" stroke-width="0.5"/>
<rect x="38.0469" y="7.80859" width="7.05955" height="7.05955" fill="white" stroke="black" stroke-width="0.5"/>
<rect x="45.6055" y="7.80859" width="7.05955" height="7.05955" fill="white" stroke="black" stroke-width="0.5"/>
<rect x="53.168" y="7.80859" width="7.05955" height="7.05955" fill="white" stroke="black" stroke-width="0.5"/>
<rect x="0.25" y="15.3691" width="7.05955" height="7.05955" fill="white" stroke="black" stroke-width="0.5"/>
<rect x="7.80859" y="15.3691" width="7.05955" height="7.05955" fill="white" stroke="black" stroke-width="0.5"/>
<rect x="15.3672" y="15.3691" width="7.05955" height="7.05955" fill="white" stroke="black" stroke-width="0.5"/>
<rect x="22.9297" y="15.3691" width="7.05955" height="7.05955" fill="#FF4F00" stroke="black" stroke-width="0.5"/>
<rect x="30.4883" y="15.3691" width="7.05955" height="7.05955" fill="#FF4F00" stroke="black" stroke-width="0.5"/>
<rect x="38.0469" y="15.3691" width="7.05955" height="7.05955" fill="white" stroke="black" stroke-width="0.5"/>
<rect x="45.6055" y="15.3691" width="7.05955" height="7.05955" fill="white" stroke="black" stroke-width="0.5"/>
<rect x="53.168" y="15.3691" width="7.05955" height="7.05955" fill="white" stroke="black" stroke-width="0.5"/>
<rect x="0.25" y="22.9277" width="7.05955" height="7.05955" fill="white" stroke="black" stroke-width="0.5"/>
<rect x="7.80859" y="22.9277" width="7.05955" height="7.05955" fill="#FF4F00" stroke="black" stroke-width="0.5"/>
<rect x="15.3672" y="22.9277" width="7.05955" height="7.05955" fill="#FF4F00" stroke="black" stroke-width="0.5"/>
<rect x="22.9297" y="22.9277" width="7.05955" height="7.05955" fill="#FF4F00" stroke="black" stroke-width="0.5"/>
<rect x="30.4883" y="22.9277" width="7.05955" height="7.05955" fill="#FF4F00" stroke="black" stroke-width="0.5"/>
<rect x="38.0469" y="22.9277" width="7.05955" height="7.05955" fill="#FF4F00" stroke="black" stroke-width="0.5"/>
<rect x="45.6055" y="22.9277" width="7.05955" height="7.05955" fill="#FF4F00" stroke="black" stroke-width="0.5"/>
<rect x="53.168" y="22.9277" width="7.05955" height="7.05955" fill="white" stroke="black" stroke-width="0.5"/>
<rect x="0.25" y="30.4883" width="7.05955" height="7.05955" fill="white" stroke="black" stroke-width="0.5"/>
<rect x="7.80859" y="30.4883" width="7.05955" height="7.05955" fill="#FF4F00" stroke="black" stroke-width="0.5"/>
<rect x="15.3672" y="30.4883" width="7.05955" height="7.05955" fill="#FF4F00" stroke="black" stroke-width="0.5"/>
<rect x="22.9297" y="30.4883" width="7.05955" height="7.05955" fill="#FF4F00" stroke="black" stroke-width="0.5"/>
<rect x="30.4883" y="30.4883" width="7.05955" height="7.05955" fill="#FF4F00" stroke="black" stroke-width="0.5"/>
<rect x="38.0469" y="30.4883" width="7.05955" height="7.05955" fill="#FF4F00" stroke="black" stroke-width="0.5"/>
<rect x="45.6055" y="30.4883" width="7.05955" height="7.05955" fill="#FF4F00" stroke="black" stroke-width="0.5"/>
<rect x="53.168" y="30.4883" width="7.05955" height="7.05955" fill="white" stroke="black" stroke-width="0.5"/>
<rect x="0.25" y="38.0469" width="7.05955" height="7.05955" fill="white" stroke="black" stroke-width="0.5"/>
<rect x="7.80859" y="38.0469" width="7.05955" height="7.05955" fill="white" stroke="black" stroke-width="0.5"/>
<rect x="15.3672" y="38.0469" width="7.05955" height="7.05955" fill="white" stroke="black" stroke-width="0.5"/>
<rect x="22.9297" y="38.0469" width="7.05955" height="7.05955" fill="#FF4F00" stroke="black" stroke-width="0.5"/>
<rect x="30.4883" y="38.0469" width="7.05955" height="7.05955" fill="#FF4F00" stroke="black" stroke-width="0.5"/>
<rect x="38.0469" y="38.0469" width="7.05955" height="7.05955" fill="white" stroke="black" stroke-width="0.5"/>
<rect x="45.6055" y="38.0469" width="7.05955" height="7.05955" fill="white" stroke="black" stroke-width="0.5"/>
<rect x="53.168" y="38.0469" width="7.05955" height="7.05955" fill="white" stroke="black" stroke-width="0.5"/>
<rect x="0.25" y="45.6074" width="7.05955" height="7.05955" fill="white" stroke="black" stroke-width="0.5"/>
<rect x="7.80859" y="45.6074" width="7.05955" height="7.05955" fill="white" stroke="black" stroke-width="0.5"/>
<rect x="15.3672" y="45.6074" width="7.05955" height="7.05955" fill="white" stroke="black" stroke-width="0.5"/>
<rect x="22.9297" y="45.6074" width="7.05955" height="7.05955" fill="#FF4F00" stroke="black" stroke-width="0.5"/>
<rect x="30.4883" y="45.6074" width="7.05955" height="7.05955" fill="#FF4F00" stroke="black" stroke-width="0.5"/>
<rect x="38.0469" y="45.6074" width="7.05955" height="7.05955" fill="white" stroke="black" stroke-width="0.5"/>
<rect x="45.6055" y="45.6074" width="7.05955" height="7.05955" fill="white" stroke="black" stroke-width="0.5"/>
<rect x="53.168" y="45.6074" width="7.05955" height="7.05955" fill="white" stroke="black" stroke-width="0.5"/>
<rect x="0.25" y="53.166" width="7.05955" height="7.05955" fill="white" stroke="black" stroke-width="0.5"/>
<rect x="7.80859" y="53.166" width="7.05955" height="7.05955" fill="white" stroke="black" stroke-width="0.5"/>
<rect x="15.3672" y="53.166" width="7.05955" height="7.05955" fill="white" stroke="black" stroke-width="0.5"/>
<rect x="22.9297" y="53.166" width="7.05955" height="7.05955" fill="white" stroke="black" stroke-width="0.5"/>
<rect x="30.4883" y="53.166" width="7.05955" height="7.05955" fill="white" stroke="black" stroke-width="0.5"/>
<rect x="38.0469" y="53.166" width="7.05955" height="7.05955" fill="white" stroke="black" stroke-width="0.5"/>
<rect x="45.6055" y="53.166" width="7.05955" height="7.05955" fill="white" stroke="black" stroke-width="0.5"/>
<rect x="53.168" y="53.166" width="7.05955" height="7.05955" fill="white" stroke="black" stroke-width="0.5"/>
<rect x="0.5" y="0.5" width="60" height="60" stroke="black"/>
<circle cx="71.25" cy="26.25" r="3.25" fill="#FF4F00"/>
<circle cx="79.25" cy="26.25" r="3.25" fill="#FF4F00"/>
<circle cx="103.25" cy="26.25" r="3.25" fill="#FF4F00"/>
<circle cx="111.25" cy="26.25" r="3.25" fill="#FF4F00"/>
<circle cx="87.25" cy="26.25" r="3.25" fill="#FF4F00"/>
<circle cx="95.25" cy="26.25" r="3.25" fill="#FF4F00"/>
<circle cx="71.25" cy="34.25" r="3.25" fill="#FF4F00"/>
<circle cx="79.25" cy="34.25" r="3.25" fill="#FF4F00"/>
<circle cx="103.25" cy="34.25" r="3.25" fill="#FF4F00"/>
<circle cx="111.25" cy="34.25" r="3.25" fill="#FF4F00"/>
<circle cx="87.25" cy="34.25" r="3.25" fill="#FF4F00"/>
<circle cx="95.25" cy="34.25" r="3.25" fill="#FF4F00"/>
<circle cx="87.25" cy="42.25" r="3.25" fill="#FF4F00"/>
<circle cx="95.25" cy="42.25" r="3.25" fill="#FF4F00"/>
<circle cx="87.25" cy="50.25" r="3.25" fill="#FF4F00"/>
<circle cx="95.25" cy="50.25" r="3.25" fill="#FF4F00"/>
<circle cx="87.25" cy="10.25" r="3.25" fill="#FF4F00"/>
<circle cx="95.25" cy="10.25" r="3.25" fill="#FF4F00"/>
<circle cx="87.25" cy="18.25" r="3.25" fill="#FF4F00"/>
<circle cx="95.25" cy="18.25" r="3.25" fill="#FF4F00"/>
<path d="M96.1768 10.1768C96.2744 10.0791 96.2744 9.92085 96.1768 9.82322L94.5858 8.23223C94.4882 8.1346 94.3299 8.1346 94.2322 8.23223C94.1346 8.32986 94.1346 8.48816 94.2322 8.58579L95.6464 10L94.2322 11.4142C94.1346 11.5118 94.1346 11.6701 94.2322 11.7678C94.3299 11.8654 94.4882 11.8654 94.5858 11.7678L96.1768 10.1768ZM87 10.25H96V9.75H87V10.25Z" fill="black"/>
<path d="M96.1768 18.1768C96.2744 18.0791 96.2744 17.9209 96.1768 17.8232L94.5858 16.2322C94.4882 16.1346 94.3299 16.1346 94.2322 16.2322C94.1346 16.3299 94.1346 16.4882 94.2322 16.5858L95.6464 18L94.2322 19.4142C94.1346 19.5118 94.1346 19.6701 94.2322 19.7678C94.3299 19.8654 94.4882 19.8654 94.5858 19.7678L96.1768 18.1768ZM87 18.25H96V17.75H87V18.25Z" fill="black"/>
<path d="M96.1768 10.1768C96.2744 10.0791 96.2744 9.92085 96.1768 9.82322L94.5858 8.23223C94.4882 8.1346 94.3299 8.1346 94.2322 8.23223C94.1346 8.32986 94.1346 8.48816 94.2322 8.58579L95.6464 10L94.2322 11.4142C94.1346 11.5118 94.1346 11.6701 94.2322 11.7678C94.3299 11.8654 94.4882 11.8654 94.5858 11.7678L96.1768 10.1768ZM87 10.25H96V9.75H87V10.25Z" fill="black"/>
<path d="M96.1768 18.1768C96.2744 18.0791 96.2744 17.9209 96.1768 17.8232L94.5858 16.2322C94.4882 16.1346 94.3299 16.1346 94.2322 16.2322C94.1346 16.3299 94.1346 16.4882 94.2322 16.5858L95.6464 18L94.2322 19.4142C94.1346 19.5118 94.1346 19.6701 94.2322 19.7678C94.3299 19.8654 94.4882 19.8654 94.5858 19.7678L96.1768 18.1768ZM87 18.25H96V17.75H87V18.25Z" fill="black"/>
<path d="M96.1768 42.1768C96.2744 42.0791 96.2744 41.9209 96.1768 41.8232L94.5858 40.2322C94.4882 40.1346 94.3299 40.1346 94.2322 40.2322C94.1346 40.3299 94.1346 40.4882 94.2322 40.5858L95.6464 42L94.2322 43.4142C94.1346 43.5118 94.1346 43.6701 94.2322 43.7678C94.3299 43.8654 94.4882 43.8654 94.5858 43.7678L96.1768 42.1768ZM87 42.25H96V41.75H87V42.25Z" fill="black"/>
<path d="M96.1768 50.1768C96.2744 50.0791 96.2744 49.9209 96.1768 49.8232L94.5858 48.2322C94.4882 48.1346 94.3299 48.1346 94.2322 48.2322C94.1346 48.3299 94.1346 48.4882 94.2322 48.5858L95.6464 50L94.2322 51.4142C94.1346 51.5118 94.1346 51.6701 94.2322 51.7678C94.3299 51.8654 94.4882 51.8654 94.5858 51.7678L96.1768 50.1768ZM87 50.25H96V49.75H87V50.25Z" fill="black"/>
<path d="M112.177 26.1768C112.274 26.0791 112.274 25.9209 112.177 25.8232L110.586 24.2322C110.488 24.1346 110.33 24.1346 110.232 24.2322C110.135 24.3299 110.135 24.4882 110.232 24.5858L111.646 26L110.232 27.4142C110.135 27.5118 110.135 27.6701 110.232 27.7678C110.33 27.8654 110.488 27.8654 110.586 27.7678L112.177 26.1768ZM71 26.25L112 26.25L112 25.75L71 25.75L71 26.25Z" fill="black"/>
<path d="M112.177 34.1768C112.274 34.0791 112.274 33.9209 112.177 33.8232L110.586 32.2322C110.488 32.1346 110.33 32.1346 110.232 32.2322C110.135 32.3299 110.135 32.4882 110.232 32.5858L111.646 34L110.232 35.4142C110.135 35.5118 110.135 35.6701 110.232 35.7678C110.33 35.8654 110.488 35.8654 110.586 35.7678L112.177 34.1768ZM71 34.25L112 34.25L112 33.75L71 33.75L71 34.25Z" fill="black"/>
</svg>
