%TF.GenerationSoftware,KiCad,Pcbnew,8.0.0*%
%TF.CreationDate,2024-04-14T23:57:27-07:00*%
%TF.ProjectId,Open Beam Interface,4f70656e-2042-4656-916d-20496e746572,rev?*%
%TF.SameCoordinates,Original*%
%TF.FileFunction,Paste,Top*%
%TF.FilePolarity,Positive*%
%FSLAX46Y46*%
G04 Gerber Fmt 4.6, Leading zero omitted, Abs format (unit mm)*
G04 Created by KiCad (PCBNEW 8.0.0) date 2024-04-14 23:57:27*
%MOMM*%
%LPD*%
G01*
G04 APERTURE LIST*
G04 Aperture macros list*
%AMRoundRect*
0 Rectangle with rounded corners*
0 $1 Rounding radius*
0 $2 $3 $4 $5 $6 $7 $8 $9 X,Y pos of 4 corners*
0 Add a 4 corners polygon primitive as box body*
4,1,4,$2,$3,$4,$5,$6,$7,$8,$9,$2,$3,0*
0 Add four circle primitives for the rounded corners*
1,1,$1+$1,$2,$3*
1,1,$1+$1,$4,$5*
1,1,$1+$1,$6,$7*
1,1,$1+$1,$8,$9*
0 Add four rect primitives between the rounded corners*
20,1,$1+$1,$2,$3,$4,$5,0*
20,1,$1+$1,$4,$5,$6,$7,0*
20,1,$1+$1,$6,$7,$8,$9,0*
20,1,$1+$1,$8,$9,$2,$3,0*%
G04 Aperture macros list end*
%ADD10C,0.500000*%
%ADD11C,0.200000*%
%ADD12RoundRect,0.225000X0.225000X0.250000X-0.225000X0.250000X-0.225000X-0.250000X0.225000X-0.250000X0*%
%ADD13RoundRect,0.200000X0.200000X0.275000X-0.200000X0.275000X-0.200000X-0.275000X0.200000X-0.275000X0*%
%ADD14RoundRect,0.200000X-0.275000X0.200000X-0.275000X-0.200000X0.275000X-0.200000X0.275000X0.200000X0*%
%ADD15RoundRect,0.200000X-0.200000X-0.275000X0.200000X-0.275000X0.200000X0.275000X-0.200000X0.275000X0*%
%ADD16RoundRect,0.172500X-0.422500X0.172500X-0.422500X-0.172500X0.422500X-0.172500X0.422500X0.172500X0*%
%ADD17RoundRect,0.100000X-0.100000X0.625000X-0.100000X-0.625000X0.100000X-0.625000X0.100000X0.625000X0*%
%ADD18RoundRect,0.225000X-0.225000X-0.250000X0.225000X-0.250000X0.225000X0.250000X-0.225000X0.250000X0*%
%ADD19RoundRect,0.100000X-0.100000X0.637500X-0.100000X-0.637500X0.100000X-0.637500X0.100000X0.637500X0*%
%ADD20RoundRect,0.218750X-0.256250X0.218750X-0.256250X-0.218750X0.256250X-0.218750X0.256250X0.218750X0*%
%ADD21RoundRect,0.200000X0.275000X-0.200000X0.275000X0.200000X-0.275000X0.200000X-0.275000X-0.200000X0*%
%ADD22RoundRect,0.250000X0.325000X0.650000X-0.325000X0.650000X-0.325000X-0.650000X0.325000X-0.650000X0*%
%ADD23RoundRect,0.250000X-0.325000X-0.650000X0.325000X-0.650000X0.325000X0.650000X-0.325000X0.650000X0*%
%ADD24RoundRect,0.250000X-0.312500X-0.625000X0.312500X-0.625000X0.312500X0.625000X-0.312500X0.625000X0*%
%ADD25RoundRect,0.225000X-0.250000X0.225000X-0.250000X-0.225000X0.250000X-0.225000X0.250000X0.225000X0*%
%ADD26R,0.500000X0.600000*%
%ADD27RoundRect,0.225000X0.250000X-0.225000X0.250000X0.225000X-0.250000X0.225000X-0.250000X-0.225000X0*%
%ADD28RoundRect,0.250000X-0.650000X0.325000X-0.650000X-0.325000X0.650000X-0.325000X0.650000X0.325000X0*%
%ADD29RoundRect,0.150000X-0.150000X0.825000X-0.150000X-0.825000X0.150000X-0.825000X0.150000X0.825000X0*%
%ADD30R,1.600000X1.300000*%
%ADD31R,1.600000X2.000000*%
%ADD32RoundRect,0.250000X0.650000X-0.325000X0.650000X0.325000X-0.650000X0.325000X-0.650000X-0.325000X0*%
%ADD33RoundRect,0.250000X-1.100000X0.325000X-1.100000X-0.325000X1.100000X-0.325000X1.100000X0.325000X0*%
%ADD34RoundRect,0.075000X0.662500X0.075000X-0.662500X0.075000X-0.662500X-0.075000X0.662500X-0.075000X0*%
%ADD35RoundRect,0.075000X-0.662500X-0.075000X0.662500X-0.075000X0.662500X0.075000X-0.662500X0.075000X0*%
%ADD36RoundRect,0.218750X-0.218750X-0.256250X0.218750X-0.256250X0.218750X0.256250X-0.218750X0.256250X0*%
%ADD37RoundRect,0.250000X-0.400000X-0.450000X0.400000X-0.450000X0.400000X0.450000X-0.400000X0.450000X0*%
%ADD38RoundRect,0.150000X0.825000X0.150000X-0.825000X0.150000X-0.825000X-0.150000X0.825000X-0.150000X0*%
%ADD39R,1.500000X0.600000*%
%ADD40RoundRect,0.150000X0.150000X-0.825000X0.150000X0.825000X-0.150000X0.825000X-0.150000X-0.825000X0*%
%ADD41R,3.500000X1.600000*%
%ADD42RoundRect,0.150000X-0.825000X-0.150000X0.825000X-0.150000X0.825000X0.150000X-0.825000X0.150000X0*%
%ADD43R,0.600000X1.500000*%
%ADD44RoundRect,0.218750X0.256250X-0.218750X0.256250X0.218750X-0.256250X0.218750X-0.256250X-0.218750X0*%
%ADD45RoundRect,0.100000X-0.637500X-0.100000X0.637500X-0.100000X0.637500X0.100000X-0.637500X0.100000X0*%
%ADD46RoundRect,0.250000X1.100000X-0.325000X1.100000X0.325000X-1.100000X0.325000X-1.100000X-0.325000X0*%
%ADD47RoundRect,0.157500X0.222500X-0.157500X0.222500X0.157500X-0.222500X0.157500X-0.222500X-0.157500X0*%
%ADD48RoundRect,0.125000X0.125000X-0.600000X0.125000X0.600000X-0.125000X0.600000X-0.125000X-0.600000X0*%
%ADD49RoundRect,0.075000X0.075000X0.662500X-0.075000X0.662500X-0.075000X-0.662500X0.075000X-0.662500X0*%
G04 APERTURE END LIST*
%TO.C,C19*%
D10*
X180840000Y-63350000D02*
X178640000Y-63350000D01*
X178640000Y-64000000D01*
X180840000Y-64000000D01*
X180840000Y-63350000D01*
G36*
X180840000Y-63350000D02*
G01*
X178640000Y-63350000D01*
X178640000Y-64000000D01*
X180840000Y-64000000D01*
X180840000Y-63350000D01*
G37*
X180840000Y-66300000D02*
X178640000Y-66300000D01*
X178640000Y-66950000D01*
X180840000Y-66950000D01*
X180840000Y-66300000D01*
G36*
X180840000Y-66300000D02*
G01*
X178640000Y-66300000D01*
X178640000Y-66950000D01*
X180840000Y-66950000D01*
X180840000Y-66300000D01*
G37*
%TO.C,C25*%
X192320000Y-63350000D02*
X190120000Y-63350000D01*
X190120000Y-64000000D01*
X192320000Y-64000000D01*
X192320000Y-63350000D01*
G36*
X192320000Y-63350000D02*
G01*
X190120000Y-63350000D01*
X190120000Y-64000000D01*
X192320000Y-64000000D01*
X192320000Y-63350000D01*
G37*
X192320000Y-66300000D02*
X190120000Y-66300000D01*
X190120000Y-66950000D01*
X192320000Y-66950000D01*
X192320000Y-66300000D01*
G36*
X192320000Y-66300000D02*
G01*
X190120000Y-66300000D01*
X190120000Y-66950000D01*
X192320000Y-66950000D01*
X192320000Y-66300000D01*
G37*
%TO.C,C20*%
X157860000Y-63350000D02*
X155660000Y-63350000D01*
X155660000Y-64000000D01*
X157860000Y-64000000D01*
X157860000Y-63350000D01*
G36*
X157860000Y-63350000D02*
G01*
X155660000Y-63350000D01*
X155660000Y-64000000D01*
X157860000Y-64000000D01*
X157860000Y-63350000D01*
G37*
X157860000Y-66300000D02*
X155660000Y-66300000D01*
X155660000Y-66950000D01*
X157860000Y-66950000D01*
X157860000Y-66300000D01*
G36*
X157860000Y-66300000D02*
G01*
X155660000Y-66300000D01*
X155660000Y-66950000D01*
X157860000Y-66950000D01*
X157860000Y-66300000D01*
G37*
%TO.C,FH2*%
D11*
X140900000Y-64070000D02*
X139400000Y-64070000D01*
X139400000Y-65770000D01*
X140900000Y-65770000D01*
X140900000Y-64070000D01*
G36*
X140900000Y-64070000D02*
G01*
X139400000Y-64070000D01*
X139400000Y-65770000D01*
X140900000Y-65770000D01*
X140900000Y-64070000D01*
G37*
X140900000Y-66410000D02*
X139400000Y-66410000D01*
X139400000Y-68110000D01*
X140900000Y-68110000D01*
X140900000Y-66410000D01*
G36*
X140900000Y-66410000D02*
G01*
X139400000Y-66410000D01*
X139400000Y-68110000D01*
X140900000Y-68110000D01*
X140900000Y-66410000D01*
G37*
X140900000Y-70450000D02*
X139400000Y-70450000D01*
X139400000Y-72150000D01*
X140900000Y-72150000D01*
X140900000Y-70450000D01*
G36*
X140900000Y-70450000D02*
G01*
X139400000Y-70450000D01*
X139400000Y-72150000D01*
X140900000Y-72150000D01*
X140900000Y-70450000D01*
G37*
X140900000Y-72790000D02*
X139400000Y-72790000D01*
X139400000Y-74490000D01*
X140900000Y-74490000D01*
X140900000Y-72790000D01*
G36*
X140900000Y-72790000D02*
G01*
X139400000Y-72790000D01*
X139400000Y-74490000D01*
X140900000Y-74490000D01*
X140900000Y-72790000D01*
G37*
X143000000Y-64070000D02*
X141500000Y-64070000D01*
X141500000Y-65770000D01*
X143000000Y-65770000D01*
X143000000Y-64070000D01*
G36*
X143000000Y-64070000D02*
G01*
X141500000Y-64070000D01*
X141500000Y-65770000D01*
X143000000Y-65770000D01*
X143000000Y-64070000D01*
G37*
X143000000Y-66410000D02*
X141500000Y-66410000D01*
X141500000Y-68110000D01*
X143000000Y-68110000D01*
X143000000Y-66410000D01*
G36*
X143000000Y-66410000D02*
G01*
X141500000Y-66410000D01*
X141500000Y-68110000D01*
X143000000Y-68110000D01*
X143000000Y-66410000D01*
G37*
X143000000Y-70450000D02*
X141500000Y-70450000D01*
X141500000Y-72150000D01*
X143000000Y-72150000D01*
X143000000Y-70450000D01*
G36*
X143000000Y-70450000D02*
G01*
X141500000Y-70450000D01*
X141500000Y-72150000D01*
X143000000Y-72150000D01*
X143000000Y-70450000D01*
G37*
X143000000Y-72790000D02*
X141500000Y-72790000D01*
X141500000Y-74490000D01*
X143000000Y-74490000D01*
X143000000Y-72790000D01*
G36*
X143000000Y-72790000D02*
G01*
X141500000Y-72790000D01*
X141500000Y-74490000D01*
X143000000Y-74490000D01*
X143000000Y-72790000D01*
G37*
%TO.C,FH3*%
X146200000Y-64070000D02*
X144700000Y-64070000D01*
X144700000Y-65770000D01*
X146200000Y-65770000D01*
X146200000Y-64070000D01*
G36*
X146200000Y-64070000D02*
G01*
X144700000Y-64070000D01*
X144700000Y-65770000D01*
X146200000Y-65770000D01*
X146200000Y-64070000D01*
G37*
X146200000Y-66410000D02*
X144700000Y-66410000D01*
X144700000Y-68110000D01*
X146200000Y-68110000D01*
X146200000Y-66410000D01*
G36*
X146200000Y-66410000D02*
G01*
X144700000Y-66410000D01*
X144700000Y-68110000D01*
X146200000Y-68110000D01*
X146200000Y-66410000D01*
G37*
X146200000Y-70450000D02*
X144700000Y-70450000D01*
X144700000Y-72150000D01*
X146200000Y-72150000D01*
X146200000Y-70450000D01*
G36*
X146200000Y-70450000D02*
G01*
X144700000Y-70450000D01*
X144700000Y-72150000D01*
X146200000Y-72150000D01*
X146200000Y-70450000D01*
G37*
X146200000Y-72790000D02*
X144700000Y-72790000D01*
X144700000Y-74490000D01*
X146200000Y-74490000D01*
X146200000Y-72790000D01*
G36*
X146200000Y-72790000D02*
G01*
X144700000Y-72790000D01*
X144700000Y-74490000D01*
X146200000Y-74490000D01*
X146200000Y-72790000D01*
G37*
X148300000Y-64070000D02*
X146800000Y-64070000D01*
X146800000Y-65770000D01*
X148300000Y-65770000D01*
X148300000Y-64070000D01*
G36*
X148300000Y-64070000D02*
G01*
X146800000Y-64070000D01*
X146800000Y-65770000D01*
X148300000Y-65770000D01*
X148300000Y-64070000D01*
G37*
X148300000Y-66410000D02*
X146800000Y-66410000D01*
X146800000Y-68110000D01*
X148300000Y-68110000D01*
X148300000Y-66410000D01*
G36*
X148300000Y-66410000D02*
G01*
X146800000Y-66410000D01*
X146800000Y-68110000D01*
X148300000Y-68110000D01*
X148300000Y-66410000D01*
G37*
X148300000Y-70450000D02*
X146800000Y-70450000D01*
X146800000Y-72150000D01*
X148300000Y-72150000D01*
X148300000Y-70450000D01*
G36*
X148300000Y-70450000D02*
G01*
X146800000Y-70450000D01*
X146800000Y-72150000D01*
X148300000Y-72150000D01*
X148300000Y-70450000D01*
G37*
X148300000Y-72790000D02*
X146800000Y-72790000D01*
X146800000Y-74490000D01*
X148300000Y-74490000D01*
X148300000Y-72790000D01*
G36*
X148300000Y-72790000D02*
G01*
X146800000Y-72790000D01*
X146800000Y-74490000D01*
X148300000Y-74490000D01*
X148300000Y-72790000D01*
G37*
%TO.C,FH1*%
X135600000Y-64070000D02*
X134100000Y-64070000D01*
X134100000Y-65770000D01*
X135600000Y-65770000D01*
X135600000Y-64070000D01*
G36*
X135600000Y-64070000D02*
G01*
X134100000Y-64070000D01*
X134100000Y-65770000D01*
X135600000Y-65770000D01*
X135600000Y-64070000D01*
G37*
X135600000Y-66410000D02*
X134100000Y-66410000D01*
X134100000Y-68110000D01*
X135600000Y-68110000D01*
X135600000Y-66410000D01*
G36*
X135600000Y-66410000D02*
G01*
X134100000Y-66410000D01*
X134100000Y-68110000D01*
X135600000Y-68110000D01*
X135600000Y-66410000D01*
G37*
X135600000Y-70450000D02*
X134100000Y-70450000D01*
X134100000Y-72150000D01*
X135600000Y-72150000D01*
X135600000Y-70450000D01*
G36*
X135600000Y-70450000D02*
G01*
X134100000Y-70450000D01*
X134100000Y-72150000D01*
X135600000Y-72150000D01*
X135600000Y-70450000D01*
G37*
X135600000Y-72790000D02*
X134100000Y-72790000D01*
X134100000Y-74490000D01*
X135600000Y-74490000D01*
X135600000Y-72790000D01*
G36*
X135600000Y-72790000D02*
G01*
X134100000Y-72790000D01*
X134100000Y-74490000D01*
X135600000Y-74490000D01*
X135600000Y-72790000D01*
G37*
X137700000Y-64070000D02*
X136200000Y-64070000D01*
X136200000Y-65770000D01*
X137700000Y-65770000D01*
X137700000Y-64070000D01*
G36*
X137700000Y-64070000D02*
G01*
X136200000Y-64070000D01*
X136200000Y-65770000D01*
X137700000Y-65770000D01*
X137700000Y-64070000D01*
G37*
X137700000Y-66410000D02*
X136200000Y-66410000D01*
X136200000Y-68110000D01*
X137700000Y-68110000D01*
X137700000Y-66410000D01*
G36*
X137700000Y-66410000D02*
G01*
X136200000Y-66410000D01*
X136200000Y-68110000D01*
X137700000Y-68110000D01*
X137700000Y-66410000D01*
G37*
X137700000Y-70450000D02*
X136200000Y-70450000D01*
X136200000Y-72150000D01*
X137700000Y-72150000D01*
X137700000Y-70450000D01*
G36*
X137700000Y-70450000D02*
G01*
X136200000Y-70450000D01*
X136200000Y-72150000D01*
X137700000Y-72150000D01*
X137700000Y-70450000D01*
G37*
X137700000Y-72790000D02*
X136200000Y-72790000D01*
X136200000Y-74490000D01*
X137700000Y-74490000D01*
X137700000Y-72790000D01*
G36*
X137700000Y-72790000D02*
G01*
X136200000Y-72790000D01*
X136200000Y-74490000D01*
X137700000Y-74490000D01*
X137700000Y-72790000D01*
G37*
%TO.C,C18*%
D10*
X169360000Y-63350000D02*
X167160000Y-63350000D01*
X167160000Y-64000000D01*
X169360000Y-64000000D01*
X169360000Y-63350000D01*
G36*
X169360000Y-63350000D02*
G01*
X167160000Y-63350000D01*
X167160000Y-64000000D01*
X169360000Y-64000000D01*
X169360000Y-63350000D01*
G37*
X169360000Y-66300000D02*
X167160000Y-66300000D01*
X167160000Y-66950000D01*
X169360000Y-66950000D01*
X169360000Y-66300000D01*
G36*
X169360000Y-66300000D02*
G01*
X167160000Y-66300000D01*
X167160000Y-66950000D01*
X169360000Y-66950000D01*
X169360000Y-66300000D01*
G37*
%TD*%
D12*
%TO.C,C44*%
X160635000Y-125880000D03*
X159085000Y-125880000D03*
%TD*%
D13*
%TO.C,R47*%
X175535000Y-83970000D03*
X173885000Y-83970000D03*
%TD*%
D14*
%TO.C,R33*%
X164500000Y-99085000D03*
X164500000Y-100735000D03*
%TD*%
D15*
%TO.C,R1*%
X163635000Y-66700000D03*
X165285000Y-66700000D03*
%TD*%
D13*
%TO.C,R71*%
X193495000Y-108940000D03*
X191845000Y-108940000D03*
%TD*%
D15*
%TO.C,R58*%
X170055000Y-126480000D03*
X171705000Y-126480000D03*
%TD*%
D16*
%TO.C,U19*%
X153612344Y-62240000D03*
X152192344Y-62240000D03*
X153612344Y-63060000D03*
X152192344Y-63060000D03*
D17*
X154527344Y-60500000D03*
X153877344Y-60500000D03*
X153227344Y-60500000D03*
X152577344Y-60500000D03*
X151927344Y-60500000D03*
X151277344Y-60500000D03*
X151277344Y-64800000D03*
X151927344Y-64800000D03*
X152577344Y-64800000D03*
X153227344Y-64800000D03*
X153877344Y-64800000D03*
X154527344Y-64800000D03*
%TD*%
D18*
%TO.C,C12*%
X164355000Y-55790000D03*
X165905000Y-55790000D03*
%TD*%
D19*
%TO.C,U20*%
X119856800Y-72259650D03*
X119206800Y-72259650D03*
X118556800Y-72259650D03*
X117906800Y-72259650D03*
X117256800Y-72259650D03*
X116606800Y-72259650D03*
X115956800Y-72259650D03*
X115956800Y-77984650D03*
X116606800Y-77984650D03*
X117256800Y-77984650D03*
X117906800Y-77984650D03*
X118556800Y-77984650D03*
X119206800Y-77984650D03*
X119856800Y-77984650D03*
%TD*%
D20*
%TO.C,D1*%
X187370000Y-57212500D03*
X187370000Y-58787500D03*
%TD*%
D21*
%TO.C,R100*%
X155890000Y-62195000D03*
X155890000Y-60545000D03*
%TD*%
D14*
%TO.C,R51*%
X173980000Y-97555000D03*
X173980000Y-99205000D03*
%TD*%
D22*
%TO.C,C85*%
X167625000Y-111840000D03*
X164675000Y-111840000D03*
%TD*%
%TO.C,C63*%
X167625000Y-93780000D03*
X164675000Y-93780000D03*
%TD*%
D23*
%TO.C,C42*%
X184195000Y-93780000D03*
X187145000Y-93780000D03*
%TD*%
D15*
%TO.C,R60*%
X182125000Y-95860000D03*
X183775000Y-95860000D03*
%TD*%
D18*
%TO.C,C13*%
X175835000Y-55770000D03*
X177385000Y-55770000D03*
%TD*%
D24*
%TO.C,R46*%
X169247500Y-87590000D03*
X172172500Y-87590000D03*
%TD*%
%TO.C,R41*%
X169247500Y-97170000D03*
X172172500Y-97170000D03*
%TD*%
D12*
%TO.C,C36*%
X160125000Y-95780000D03*
X158575000Y-95780000D03*
%TD*%
%TO.C,C81*%
X143415000Y-111760000D03*
X141865000Y-111760000D03*
%TD*%
D25*
%TO.C,C31*%
X152040000Y-119115000D03*
X152040000Y-120665000D03*
%TD*%
D13*
%TO.C,R29*%
X170625000Y-109890000D03*
X168975000Y-109890000D03*
%TD*%
D15*
%TO.C,R68*%
X188845000Y-108940000D03*
X190495000Y-108940000D03*
%TD*%
D25*
%TO.C,C52*%
X165350000Y-124585000D03*
X165350000Y-126135000D03*
%TD*%
D26*
%TO.C,Q1*%
X183060000Y-63160000D03*
X182060000Y-63160000D03*
X182560000Y-64460000D03*
%TD*%
D15*
%TO.C,R77*%
X182885000Y-90880000D03*
X184535000Y-90880000D03*
%TD*%
%TO.C,R34*%
X165195000Y-122740000D03*
X166845000Y-122740000D03*
%TD*%
D21*
%TO.C,R56*%
X178520000Y-83315000D03*
X178520000Y-81665000D03*
%TD*%
%TO.C,R90*%
X189960000Y-127195000D03*
X189960000Y-125545000D03*
%TD*%
D15*
%TO.C,R52*%
X176945000Y-80280000D03*
X178595000Y-80280000D03*
%TD*%
D25*
%TO.C,C70*%
X172480000Y-84215000D03*
X172480000Y-85765000D03*
%TD*%
%TO.C,C65*%
X175090000Y-116205000D03*
X175090000Y-117755000D03*
%TD*%
D14*
%TO.C,R64*%
X182560000Y-125585000D03*
X182560000Y-127235000D03*
%TD*%
%TO.C,R96*%
X178180000Y-125580000D03*
X178180000Y-127230000D03*
%TD*%
%TO.C,R4*%
X161420000Y-60215000D03*
X161420000Y-61865000D03*
%TD*%
D12*
%TO.C,C49*%
X165485000Y-119090000D03*
X163935000Y-119090000D03*
%TD*%
D27*
%TO.C,C58*%
X165420000Y-116155000D03*
X165420000Y-114605000D03*
%TD*%
D12*
%TO.C,C29*%
X143575000Y-127200000D03*
X142025000Y-127200000D03*
%TD*%
D23*
%TO.C,C80*%
X147935000Y-111840000D03*
X150885000Y-111840000D03*
%TD*%
D28*
%TO.C,C14*%
X159457500Y-55865000D03*
X159457500Y-58815000D03*
%TD*%
D16*
%TO.C,U2*%
X176592344Y-62240000D03*
X175172344Y-62240000D03*
X176592344Y-63060000D03*
X175172344Y-63060000D03*
D17*
X177507344Y-60500000D03*
X176857344Y-60500000D03*
X176207344Y-60500000D03*
X175557344Y-60500000D03*
X174907344Y-60500000D03*
X174257344Y-60500000D03*
X174257344Y-64800000D03*
X174907344Y-64800000D03*
X175557344Y-64800000D03*
X176207344Y-64800000D03*
X176857344Y-64800000D03*
X177507344Y-64800000D03*
%TD*%
D25*
%TO.C,C53*%
X183950000Y-113895000D03*
X183950000Y-115445000D03*
%TD*%
D14*
%TO.C,R85*%
X152890000Y-57145000D03*
X152890000Y-58795000D03*
%TD*%
%TO.C,R86*%
X157350000Y-60305000D03*
X157350000Y-61955000D03*
%TD*%
D29*
%TO.C,U10*%
X172105000Y-119515000D03*
X170835000Y-119515000D03*
X169565000Y-119515000D03*
X168295000Y-119515000D03*
X168295000Y-124465000D03*
X169565000Y-124465000D03*
X170835000Y-124465000D03*
X172105000Y-124465000D03*
%TD*%
D30*
%TO.C,RV5*%
X183260000Y-104310000D03*
D31*
X186160000Y-105560000D03*
D30*
X183260000Y-106810000D03*
%TD*%
D18*
%TO.C,C39*%
X161065000Y-81110000D03*
X162615000Y-81110000D03*
%TD*%
D15*
%TO.C,R81*%
X171935000Y-109890000D03*
X173585000Y-109890000D03*
%TD*%
D25*
%TO.C,C68*%
X139270000Y-77705000D03*
X139270000Y-79255000D03*
%TD*%
%TO.C,C82*%
X194340000Y-102575000D03*
X194340000Y-104125000D03*
%TD*%
D12*
%TO.C,C41*%
X159635000Y-89180000D03*
X158085000Y-89180000D03*
%TD*%
D32*
%TO.C,C21*%
X193920000Y-58815000D03*
X193920000Y-55865000D03*
%TD*%
D21*
%TO.C,R91*%
X187040000Y-127195000D03*
X187040000Y-125545000D03*
%TD*%
D12*
%TO.C,C83*%
X143415000Y-93700000D03*
X141865000Y-93700000D03*
%TD*%
D14*
%TO.C,R24*%
X119850000Y-65457950D03*
X119850000Y-67107950D03*
%TD*%
D23*
%TO.C,C86*%
X172045000Y-111840000D03*
X174995000Y-111840000D03*
%TD*%
D13*
%TO.C,R76*%
X173585000Y-108430000D03*
X171935000Y-108430000D03*
%TD*%
D33*
%TO.C,C11*%
X179690000Y-55865000D03*
X179690000Y-58815000D03*
%TD*%
D27*
%TO.C,C32*%
X121412000Y-78267150D03*
X121412000Y-76717150D03*
%TD*%
D25*
%TO.C,C72*%
X187380000Y-81315000D03*
X187380000Y-82865000D03*
%TD*%
%TO.C,C48*%
X161080000Y-86875000D03*
X161080000Y-88425000D03*
%TD*%
D14*
%TO.C,R84*%
X149920000Y-60205000D03*
X149920000Y-61855000D03*
%TD*%
D34*
%TO.C,U4*%
X149547300Y-89309000D03*
X149547300Y-88809000D03*
X149547300Y-88309000D03*
X149547300Y-87809000D03*
X149547300Y-87309000D03*
X149547300Y-86809000D03*
X149547300Y-86309000D03*
X149547300Y-85809000D03*
X149547300Y-85309000D03*
X149547300Y-84809000D03*
X149547300Y-84309000D03*
X149547300Y-83809000D03*
X149547300Y-83309000D03*
X149547300Y-82809000D03*
X149547300Y-82309000D03*
X149547300Y-81809000D03*
X149547300Y-81309000D03*
X149547300Y-80809000D03*
X149547300Y-80309000D03*
X149547300Y-79809000D03*
X149547300Y-79309000D03*
X149547300Y-78809000D03*
X149547300Y-78309000D03*
X149547300Y-77809000D03*
X142122300Y-77809000D03*
X142122300Y-78309000D03*
X142122300Y-78809000D03*
X142122300Y-79309000D03*
X142122300Y-79809000D03*
X142122300Y-80309000D03*
X142122300Y-80809000D03*
X142122300Y-81309000D03*
X142122300Y-81809000D03*
X142122300Y-82309000D03*
X142122300Y-82809000D03*
X142122300Y-83309000D03*
X142122300Y-83809000D03*
X142122300Y-84309000D03*
X142122300Y-84809000D03*
X142122300Y-85309000D03*
X142122300Y-85809000D03*
X142122300Y-86309000D03*
X142122300Y-86809000D03*
X142122300Y-87309000D03*
X142122300Y-87809000D03*
X142122300Y-88309000D03*
X142122300Y-88809000D03*
X142122300Y-89309000D03*
%TD*%
D26*
%TO.C,Q4*%
X160050000Y-63100000D03*
X159050000Y-63100000D03*
X159550000Y-64400000D03*
%TD*%
D33*
%TO.C,C1*%
X168210000Y-55865000D03*
X168210000Y-58815000D03*
%TD*%
D35*
%TO.C,U6*%
X142118200Y-114210800D03*
X142118200Y-114710800D03*
X142118200Y-115210800D03*
X142118200Y-115710800D03*
X142118200Y-116210800D03*
X142118200Y-116710800D03*
X142118200Y-117210800D03*
X142118200Y-117710800D03*
X142118200Y-118210800D03*
X142118200Y-118710800D03*
X142118200Y-119210800D03*
X142118200Y-119710800D03*
X142118200Y-120210800D03*
X142118200Y-120710800D03*
X142118200Y-121210800D03*
X142118200Y-121710800D03*
X142118200Y-122210800D03*
X142118200Y-122710800D03*
X142118200Y-123210800D03*
X142118200Y-123710800D03*
X142118200Y-124210800D03*
X142118200Y-124710800D03*
X142118200Y-125210800D03*
X142118200Y-125710800D03*
X149543200Y-125710800D03*
X149543200Y-125210800D03*
X149543200Y-124710800D03*
X149543200Y-124210800D03*
X149543200Y-123710800D03*
X149543200Y-123210800D03*
X149543200Y-122710800D03*
X149543200Y-122210800D03*
X149543200Y-121710800D03*
X149543200Y-121210800D03*
X149543200Y-120710800D03*
X149543200Y-120210800D03*
X149543200Y-119710800D03*
X149543200Y-119210800D03*
X149543200Y-118710800D03*
X149543200Y-118210800D03*
X149543200Y-117710800D03*
X149543200Y-117210800D03*
X149543200Y-116710800D03*
X149543200Y-116210800D03*
X149543200Y-115710800D03*
X149543200Y-115210800D03*
X149543200Y-114710800D03*
X149543200Y-114210800D03*
%TD*%
D13*
%TO.C,R22*%
X146925000Y-127200000D03*
X145275000Y-127200000D03*
%TD*%
D21*
%TO.C,R31*%
X164500000Y-103745000D03*
X164500000Y-102095000D03*
%TD*%
D25*
%TO.C,C45*%
X162310000Y-114705000D03*
X162310000Y-116255000D03*
%TD*%
D21*
%TO.C,R12*%
X172900000Y-67825000D03*
X172900000Y-66175000D03*
%TD*%
D36*
%TO.C,FB3*%
X184342500Y-55760000D03*
X185917500Y-55760000D03*
%TD*%
D14*
%TO.C,R95*%
X179640000Y-125580000D03*
X179640000Y-127230000D03*
%TD*%
D15*
%TO.C,R2*%
X175115000Y-66700000D03*
X176765000Y-66700000D03*
%TD*%
D18*
%TO.C,C38*%
X161065000Y-99170000D03*
X162615000Y-99170000D03*
%TD*%
D21*
%TO.C,R3*%
X149927500Y-58825000D03*
X149927500Y-57175000D03*
%TD*%
D22*
%TO.C,C89*%
X191945000Y-111840000D03*
X188995000Y-111840000D03*
%TD*%
D37*
%TO.C,D12*%
X145050000Y-75840000D03*
X147950000Y-75840000D03*
%TD*%
D21*
%TO.C,R32*%
X164500000Y-85685000D03*
X164500000Y-84035000D03*
%TD*%
D23*
%TO.C,C17*%
X151935000Y-68600000D03*
X154885000Y-68600000D03*
%TD*%
D38*
%TO.C,U15*%
X181995000Y-117625000D03*
X181995000Y-116355000D03*
X181995000Y-115085000D03*
X181995000Y-113815000D03*
X177045000Y-113815000D03*
X177045000Y-115085000D03*
X177045000Y-116355000D03*
X177045000Y-117625000D03*
%TD*%
D37*
%TO.C,D10*%
X134450000Y-75840000D03*
X137350000Y-75840000D03*
%TD*%
D14*
%TO.C,R26*%
X118370000Y-65437950D03*
X118370000Y-67087950D03*
%TD*%
D12*
%TO.C,C30*%
X173175000Y-114580000D03*
X171625000Y-114580000D03*
%TD*%
D14*
%TO.C,R36*%
X164500000Y-81025000D03*
X164500000Y-82675000D03*
%TD*%
D28*
%TO.C,C4*%
X182440000Y-55865000D03*
X182440000Y-58815000D03*
%TD*%
D15*
%TO.C,R53*%
X175425000Y-82350000D03*
X177075000Y-82350000D03*
%TD*%
D14*
%TO.C,R89*%
X161400000Y-57175000D03*
X161400000Y-58825000D03*
%TD*%
D21*
%TO.C,R62*%
X197000000Y-72825000D03*
X197000000Y-71175000D03*
%TD*%
D15*
%TO.C,R59*%
X182125000Y-77800000D03*
X183775000Y-77800000D03*
%TD*%
D12*
%TO.C,C15*%
X188865000Y-55760000D03*
X187315000Y-55760000D03*
%TD*%
%TO.C,C71*%
X179945000Y-102760000D03*
X178395000Y-102760000D03*
%TD*%
D39*
%TO.C,SW3*%
X192660000Y-106910000D03*
X188160000Y-106910000D03*
X188160000Y-105610000D03*
X188160000Y-104310000D03*
X192660000Y-105610000D03*
X192660000Y-104260000D03*
%TD*%
D36*
%TO.C,FB2*%
X172862500Y-55770000D03*
X174437500Y-55770000D03*
%TD*%
D12*
%TO.C,C37*%
X160125000Y-77720000D03*
X158575000Y-77720000D03*
%TD*%
D15*
%TO.C,R55*%
X175425000Y-100410000D03*
X177075000Y-100410000D03*
%TD*%
D21*
%TO.C,R57*%
X178520000Y-101375000D03*
X178520000Y-99725000D03*
%TD*%
D15*
%TO.C,R48*%
X173885000Y-102030000D03*
X175535000Y-102030000D03*
%TD*%
D40*
%TO.C,U17*%
X188995000Y-101785000D03*
X190265000Y-101785000D03*
X191535000Y-101785000D03*
X192805000Y-101785000D03*
X192805000Y-96835000D03*
X191535000Y-96835000D03*
X190265000Y-96835000D03*
X188995000Y-96835000D03*
%TD*%
D41*
%TO.C,C10*%
X156790000Y-73300000D03*
X151190000Y-73300000D03*
%TD*%
D15*
%TO.C,R65*%
X182885000Y-108940000D03*
X184535000Y-108940000D03*
%TD*%
D30*
%TO.C,RV1*%
X175290000Y-88570000D03*
D31*
X178190000Y-89820000D03*
D30*
X175290000Y-91070000D03*
%TD*%
D34*
%TO.C,U5*%
X149547300Y-107369000D03*
X149547300Y-106869000D03*
X149547300Y-106369000D03*
X149547300Y-105869000D03*
X149547300Y-105369000D03*
X149547300Y-104869000D03*
X149547300Y-104369000D03*
X149547300Y-103869000D03*
X149547300Y-103369000D03*
X149547300Y-102869000D03*
X149547300Y-102369000D03*
X149547300Y-101869000D03*
X149547300Y-101369000D03*
X149547300Y-100869000D03*
X149547300Y-100369000D03*
X149547300Y-99869000D03*
X149547300Y-99369000D03*
X149547300Y-98869000D03*
X149547300Y-98369000D03*
X149547300Y-97869000D03*
X149547300Y-97369000D03*
X149547300Y-96869000D03*
X149547300Y-96369000D03*
X149547300Y-95869000D03*
X142122300Y-95869000D03*
X142122300Y-96369000D03*
X142122300Y-96869000D03*
X142122300Y-97369000D03*
X142122300Y-97869000D03*
X142122300Y-98369000D03*
X142122300Y-98869000D03*
X142122300Y-99369000D03*
X142122300Y-99869000D03*
X142122300Y-100369000D03*
X142122300Y-100869000D03*
X142122300Y-101369000D03*
X142122300Y-101869000D03*
X142122300Y-102369000D03*
X142122300Y-102869000D03*
X142122300Y-103369000D03*
X142122300Y-103869000D03*
X142122300Y-104369000D03*
X142122300Y-104869000D03*
X142122300Y-105369000D03*
X142122300Y-105869000D03*
X142122300Y-106369000D03*
X142122300Y-106869000D03*
X142122300Y-107369000D03*
%TD*%
D14*
%TO.C,R21*%
X191810000Y-60305000D03*
X191810000Y-61955000D03*
%TD*%
D20*
%TO.C,D5*%
X181790000Y-60332500D03*
X181790000Y-61907500D03*
%TD*%
D27*
%TO.C,C57*%
X187450000Y-79845000D03*
X187450000Y-78295000D03*
%TD*%
D21*
%TO.C,R88*%
X149920000Y-64825000D03*
X149920000Y-63175000D03*
%TD*%
D15*
%TO.C,R16*%
X186595000Y-66700000D03*
X188245000Y-66700000D03*
%TD*%
D14*
%TO.C,R17*%
X184380000Y-60175000D03*
X184380000Y-61825000D03*
%TD*%
D42*
%TO.C,U13*%
X180475000Y-79345000D03*
X180475000Y-80615000D03*
X180475000Y-81885000D03*
X180475000Y-83155000D03*
X185425000Y-83155000D03*
X185425000Y-81885000D03*
X185425000Y-80615000D03*
X185425000Y-79345000D03*
%TD*%
D41*
%TO.C,C8*%
X179780000Y-73300000D03*
X174180000Y-73300000D03*
%TD*%
D26*
%TO.C,Q3*%
X194550000Y-63120000D03*
X193550000Y-63120000D03*
X194050000Y-64420000D03*
%TD*%
D15*
%TO.C,R38*%
X165895000Y-102160000D03*
X167545000Y-102160000D03*
%TD*%
D39*
%TO.C,SW1*%
X162870000Y-88550000D03*
X167370000Y-88550000D03*
X167370000Y-89850000D03*
X167370000Y-91150000D03*
X162870000Y-89850000D03*
X162870000Y-91200000D03*
%TD*%
D23*
%TO.C,C22*%
X186395000Y-68600000D03*
X189345000Y-68600000D03*
%TD*%
D13*
%TO.C,R72*%
X173585000Y-90370000D03*
X171935000Y-90370000D03*
%TD*%
D12*
%TO.C,C40*%
X159635000Y-107240000D03*
X158085000Y-107240000D03*
%TD*%
D39*
%TO.C,SW2*%
X192660000Y-88850000D03*
X188160000Y-88850000D03*
X188160000Y-87550000D03*
X188160000Y-86250000D03*
X192660000Y-87550000D03*
X192660000Y-86200000D03*
%TD*%
D14*
%TO.C,R8*%
X175860000Y-57165000D03*
X175860000Y-58815000D03*
%TD*%
D13*
%TO.C,R80*%
X170625000Y-108430000D03*
X168975000Y-108430000D03*
%TD*%
D30*
%TO.C,RV2*%
X183260000Y-86250000D03*
D31*
X186160000Y-87500000D03*
D30*
X183260000Y-88750000D03*
%TD*%
D28*
%TO.C,C3*%
X170960000Y-55865000D03*
X170960000Y-58815000D03*
%TD*%
D22*
%TO.C,C87*%
X179795000Y-111840000D03*
X176845000Y-111840000D03*
%TD*%
D14*
%TO.C,R15*%
X180330000Y-60295000D03*
X180330000Y-61945000D03*
%TD*%
D15*
%TO.C,R37*%
X165895000Y-100660000D03*
X167545000Y-100660000D03*
%TD*%
D13*
%TO.C,R74*%
X170625000Y-90370000D03*
X168975000Y-90370000D03*
%TD*%
D15*
%TO.C,R49*%
X170925000Y-116040000D03*
X172575000Y-116040000D03*
%TD*%
D43*
%TO.C,SW6*%
X178200000Y-119420000D03*
X178200000Y-123920000D03*
X176900000Y-123920000D03*
X175600000Y-123920000D03*
X176900000Y-119420000D03*
X175550000Y-119420000D03*
%TD*%
D22*
%TO.C,C33*%
X191945000Y-93780000D03*
X188995000Y-93780000D03*
%TD*%
D12*
%TO.C,C24*%
X153445000Y-107240000D03*
X151895000Y-107240000D03*
%TD*%
D25*
%TO.C,C56*%
X194340000Y-84515000D03*
X194340000Y-86065000D03*
%TD*%
D15*
%TO.C,R67*%
X183945000Y-127160000D03*
X185595000Y-127160000D03*
%TD*%
D26*
%TO.C,Q2*%
X171590000Y-63130000D03*
X170590000Y-63130000D03*
X171090000Y-64430000D03*
%TD*%
D21*
%TO.C,R63*%
X197750000Y-90555000D03*
X197750000Y-88905000D03*
%TD*%
D12*
%TO.C,C54*%
X165485000Y-117590000D03*
X163935000Y-117590000D03*
%TD*%
D15*
%TO.C,R54*%
X176945000Y-98340000D03*
X178595000Y-98340000D03*
%TD*%
D27*
%TO.C,C59*%
X163960000Y-116155000D03*
X163960000Y-114605000D03*
%TD*%
D14*
%TO.C,R23*%
X178870000Y-60545000D03*
X178870000Y-62195000D03*
%TD*%
D24*
%TO.C,R45*%
X169247500Y-79110000D03*
X172172500Y-79110000D03*
%TD*%
D30*
%TO.C,RV6*%
X175290000Y-106630000D03*
D31*
X178190000Y-107880000D03*
D30*
X175290000Y-109130000D03*
%TD*%
D21*
%TO.C,R50*%
X173980000Y-81145000D03*
X173980000Y-79495000D03*
%TD*%
D30*
%TO.C,RV3*%
X183450000Y-122370000D03*
D31*
X180550000Y-121120000D03*
D30*
X183450000Y-119870000D03*
%TD*%
D18*
%TO.C,C16*%
X152852500Y-55760000D03*
X154402500Y-55760000D03*
%TD*%
D14*
%TO.C,R98*%
X190350000Y-60545000D03*
X190350000Y-62195000D03*
%TD*%
D21*
%TO.C,R13*%
X172900000Y-64815000D03*
X172900000Y-63165000D03*
%TD*%
%TO.C,R99*%
X167390000Y-62195000D03*
X167390000Y-60545000D03*
%TD*%
D13*
%TO.C,JP7*%
X155670000Y-91840000D03*
X154020000Y-91840000D03*
D15*
X152370000Y-91840000D03*
%TD*%
D27*
%TO.C,C60*%
X187450000Y-97905000D03*
X187450000Y-96355000D03*
%TD*%
D13*
%TO.C,R78*%
X187535000Y-90880000D03*
X185885000Y-90880000D03*
%TD*%
D42*
%TO.C,U14*%
X180475000Y-97405000D03*
X180475000Y-98675000D03*
X180475000Y-99945000D03*
X180475000Y-101215000D03*
X185425000Y-101215000D03*
X185425000Y-99945000D03*
X185425000Y-98675000D03*
X185425000Y-97405000D03*
%TD*%
D21*
%TO.C,R61*%
X175260000Y-127225000D03*
X175260000Y-125575000D03*
%TD*%
%TO.C,R28*%
X194340000Y-127195000D03*
X194340000Y-125545000D03*
%TD*%
D15*
%TO.C,R35*%
X165195000Y-121240000D03*
X166845000Y-121240000D03*
%TD*%
D21*
%TO.C,R87*%
X149920000Y-67815000D03*
X149920000Y-66165000D03*
%TD*%
D18*
%TO.C,C67*%
X169425000Y-117540000D03*
X170975000Y-117540000D03*
%TD*%
D21*
%TO.C,R92*%
X191420000Y-127195000D03*
X191420000Y-125545000D03*
%TD*%
D14*
%TO.C,R14*%
X168850000Y-60295000D03*
X168850000Y-61945000D03*
%TD*%
D44*
%TO.C,D2*%
X151427500Y-58787500D03*
X151427500Y-57212500D03*
%TD*%
D12*
%TO.C,C35*%
X153445000Y-89180000D03*
X151895000Y-89180000D03*
%TD*%
D13*
%TO.C,JP5*%
X155620000Y-109900000D03*
X153970000Y-109900000D03*
D15*
X152320000Y-109900000D03*
%TD*%
D27*
%TO.C,C50*%
X163810000Y-122765000D03*
X163810000Y-121215000D03*
%TD*%
D15*
%TO.C,R75*%
X171935000Y-91830000D03*
X173585000Y-91830000D03*
%TD*%
D27*
%TO.C,C69*%
X172480000Y-100540000D03*
X172480000Y-98990000D03*
%TD*%
%TO.C,C51*%
X161186400Y-102189700D03*
X161186400Y-100639700D03*
%TD*%
D15*
%TO.C,R83*%
X152135000Y-66700000D03*
X153785000Y-66700000D03*
%TD*%
D30*
%TO.C,RV7*%
X185900000Y-119820000D03*
D31*
X188800000Y-121070000D03*
D30*
X185900000Y-122320000D03*
%TD*%
D14*
%TO.C,R6*%
X164360000Y-57175000D03*
X164360000Y-58825000D03*
%TD*%
D44*
%TO.C,D9*%
X162900000Y-58787500D03*
X162900000Y-57212500D03*
%TD*%
D20*
%TO.C,D4*%
X170310000Y-60332500D03*
X170310000Y-61907500D03*
%TD*%
D21*
%TO.C,R27*%
X192880000Y-127195000D03*
X192880000Y-125545000D03*
%TD*%
D45*
%TO.C,U8*%
X153637500Y-79125000D03*
X153637500Y-79775000D03*
X153637500Y-80425000D03*
X153637500Y-81075000D03*
X153637500Y-81725000D03*
X153637500Y-82375000D03*
X153637500Y-83025000D03*
X153637500Y-83675000D03*
X153637500Y-84325000D03*
X153637500Y-84975000D03*
X153637500Y-85625000D03*
X153637500Y-86275000D03*
X153637500Y-86925000D03*
X153637500Y-87575000D03*
X159362500Y-87575000D03*
X159362500Y-86925000D03*
X159362500Y-86275000D03*
X159362500Y-85625000D03*
X159362500Y-84975000D03*
X159362500Y-84325000D03*
X159362500Y-83675000D03*
X159362500Y-83025000D03*
X159362500Y-82375000D03*
X159362500Y-81725000D03*
X159362500Y-81075000D03*
X159362500Y-80425000D03*
X159362500Y-79775000D03*
X159362500Y-79125000D03*
%TD*%
D36*
%TO.C,FB1*%
X161382500Y-55790000D03*
X162957500Y-55790000D03*
%TD*%
D21*
%TO.C,R19*%
X184380000Y-67825000D03*
X184380000Y-66175000D03*
%TD*%
D46*
%TO.C,C46*%
X191170000Y-58815000D03*
X191170000Y-55865000D03*
%TD*%
D22*
%TO.C,C43*%
X179795000Y-93780000D03*
X176845000Y-93780000D03*
%TD*%
D14*
%TO.C,R97*%
X117780000Y-68527950D03*
X117780000Y-70177950D03*
%TD*%
D21*
%TO.C,R11*%
X161420000Y-64825000D03*
X161420000Y-63175000D03*
%TD*%
D15*
%TO.C,R66*%
X183945000Y-125700000D03*
X185595000Y-125700000D03*
%TD*%
D23*
%TO.C,C64*%
X159875000Y-93780000D03*
X162825000Y-93780000D03*
%TD*%
D47*
%TO.C,U11*%
X169530000Y-101800000D03*
X170470000Y-101800000D03*
X169530000Y-101020000D03*
X170470000Y-101020000D03*
D48*
X169025000Y-103560000D03*
X169675000Y-103560000D03*
X170325000Y-103560000D03*
X170975000Y-103560000D03*
X170975000Y-99260000D03*
X170325000Y-99260000D03*
X169675000Y-99260000D03*
X169025000Y-99260000D03*
%TD*%
D23*
%TO.C,C73*%
X134725000Y-78180000D03*
X137675000Y-78180000D03*
%TD*%
D16*
%TO.C,U3*%
X188072344Y-62240000D03*
X186652344Y-62240000D03*
X188072344Y-63060000D03*
X186652344Y-63060000D03*
D17*
X188987344Y-60500000D03*
X188337344Y-60500000D03*
X187687344Y-60500000D03*
X187037344Y-60500000D03*
X186387344Y-60500000D03*
X185737344Y-60500000D03*
X185737344Y-64800000D03*
X186387344Y-64800000D03*
X187037344Y-64800000D03*
X187687344Y-64800000D03*
X188337344Y-64800000D03*
X188987344Y-64800000D03*
%TD*%
D27*
%TO.C,C77*%
X172480000Y-82480000D03*
X172480000Y-80930000D03*
%TD*%
D15*
%TO.C,R79*%
X188845000Y-90880000D03*
X190495000Y-90880000D03*
%TD*%
D25*
%TO.C,C47*%
X161080000Y-104935000D03*
X161080000Y-106485000D03*
%TD*%
D12*
%TO.C,C79*%
X179945000Y-84700000D03*
X178395000Y-84700000D03*
%TD*%
%TO.C,C28*%
X143385000Y-90790000D03*
X141835000Y-90790000D03*
%TD*%
D16*
%TO.C,U1*%
X165112344Y-62240000D03*
X163692344Y-62240000D03*
X165112344Y-63060000D03*
X163692344Y-63060000D03*
D17*
X166027344Y-60500000D03*
X165377344Y-60500000D03*
X164727344Y-60500000D03*
X164077344Y-60500000D03*
X163427344Y-60500000D03*
X162777344Y-60500000D03*
X162777344Y-64800000D03*
X163427344Y-64800000D03*
X164077344Y-64800000D03*
X164727344Y-64800000D03*
X165377344Y-64800000D03*
X166027344Y-64800000D03*
%TD*%
D27*
%TO.C,C55*%
X161186400Y-84129700D03*
X161186400Y-82579700D03*
%TD*%
D39*
%TO.C,SW4*%
X162870000Y-106610000D03*
X167370000Y-106610000D03*
X167370000Y-107910000D03*
X167370000Y-109210000D03*
X162870000Y-107910000D03*
X162870000Y-109260000D03*
%TD*%
D20*
%TO.C,D8*%
X158810000Y-60342500D03*
X158810000Y-61917500D03*
%TD*%
D21*
%TO.C,R10*%
X161420000Y-67825000D03*
X161420000Y-66175000D03*
%TD*%
D15*
%TO.C,R44*%
X167575000Y-116040000D03*
X169225000Y-116040000D03*
%TD*%
D21*
%TO.C,R20*%
X184380000Y-64825000D03*
X184380000Y-63175000D03*
%TD*%
D23*
%TO.C,C88*%
X184195000Y-111840000D03*
X187145000Y-111840000D03*
%TD*%
D43*
%TO.C,SW5*%
X193800000Y-119370000D03*
X193800000Y-123870000D03*
X192500000Y-123870000D03*
X191200000Y-123870000D03*
X192500000Y-119370000D03*
X191150000Y-119370000D03*
%TD*%
D36*
%TO.C,FB4*%
X149880000Y-55760000D03*
X151455000Y-55760000D03*
%TD*%
D24*
%TO.C,R42*%
X169247500Y-105650000D03*
X172172500Y-105650000D03*
%TD*%
D14*
%TO.C,R25*%
X119250000Y-68527150D03*
X119250000Y-70177150D03*
%TD*%
D34*
%TO.C,U9*%
X162090000Y-122742700D03*
X162090000Y-122242700D03*
X162090000Y-121742700D03*
X162090000Y-121242700D03*
X162090000Y-120742700D03*
X162090000Y-120242700D03*
X162090000Y-119742700D03*
X162090000Y-119242700D03*
X162090000Y-118742700D03*
X162090000Y-118242700D03*
X162090000Y-117742700D03*
X162090000Y-117242700D03*
D49*
X160677500Y-115830200D03*
X160177500Y-115830200D03*
X159677500Y-115830200D03*
X159177500Y-115830200D03*
X158677500Y-115830200D03*
X158177500Y-115830200D03*
X157677500Y-115830200D03*
X157177500Y-115830200D03*
X156677500Y-115830200D03*
X156177500Y-115830200D03*
X155677500Y-115830200D03*
X155177500Y-115830200D03*
D34*
X153765000Y-117242700D03*
X153765000Y-117742700D03*
X153765000Y-118242700D03*
X153765000Y-118742700D03*
X153765000Y-119242700D03*
X153765000Y-119742700D03*
X153765000Y-120242700D03*
X153765000Y-120742700D03*
X153765000Y-121242700D03*
X153765000Y-121742700D03*
X153765000Y-122242700D03*
X153765000Y-122742700D03*
D49*
X155177500Y-124155200D03*
X155677500Y-124155200D03*
X156177500Y-124155200D03*
X156677500Y-124155200D03*
X157177500Y-124155200D03*
X157677500Y-124155200D03*
X158177500Y-124155200D03*
X158677500Y-124155200D03*
X159177500Y-124155200D03*
X159677500Y-124155200D03*
X160177500Y-124155200D03*
X160677500Y-124155200D03*
%TD*%
D41*
%TO.C,C9*%
X185660000Y-73300000D03*
X191260000Y-73300000D03*
%TD*%
D37*
%TO.C,D11*%
X139750000Y-75840000D03*
X142650000Y-75840000D03*
%TD*%
D44*
%TO.C,D3*%
X174400000Y-58787500D03*
X174400000Y-57212500D03*
%TD*%
D18*
%TO.C,C34*%
X151245000Y-95860000D03*
X152795000Y-95860000D03*
%TD*%
D23*
%TO.C,C6*%
X174915000Y-68600000D03*
X177865000Y-68600000D03*
%TD*%
D18*
%TO.C,C27*%
X151265000Y-77800000D03*
X152815000Y-77800000D03*
%TD*%
D25*
%TO.C,C74*%
X176720000Y-125630000D03*
X176720000Y-127180000D03*
%TD*%
D21*
%TO.C,R93*%
X188500000Y-127195000D03*
X188500000Y-125545000D03*
%TD*%
D23*
%TO.C,C5*%
X163435000Y-68600000D03*
X166385000Y-68600000D03*
%TD*%
D41*
%TO.C,C7*%
X168300000Y-73300000D03*
X162700000Y-73300000D03*
%TD*%
D20*
%TO.C,D6*%
X193270000Y-60382500D03*
X193270000Y-61957500D03*
%TD*%
D15*
%TO.C,R39*%
X165895000Y-82600000D03*
X167545000Y-82600000D03*
%TD*%
D13*
%TO.C,R82*%
X193495000Y-90880000D03*
X191845000Y-90880000D03*
%TD*%
D18*
%TO.C,C26*%
X141835000Y-108850000D03*
X143385000Y-108850000D03*
%TD*%
D23*
%TO.C,C62*%
X172045000Y-93780000D03*
X174995000Y-93780000D03*
%TD*%
D38*
%TO.C,U16*%
X192380000Y-117625000D03*
X192380000Y-116355000D03*
X192380000Y-115085000D03*
X192380000Y-113815000D03*
X187430000Y-113815000D03*
X187430000Y-115085000D03*
X187430000Y-116355000D03*
X187430000Y-117625000D03*
%TD*%
D23*
%TO.C,C84*%
X159875000Y-111840000D03*
X162825000Y-111840000D03*
%TD*%
D47*
%TO.C,U12*%
X169530000Y-83740000D03*
X170470000Y-83740000D03*
X169530000Y-82960000D03*
X170470000Y-82960000D03*
D48*
X169025000Y-85500000D03*
X169675000Y-85500000D03*
X170325000Y-85500000D03*
X170975000Y-85500000D03*
X170975000Y-81200000D03*
X170325000Y-81200000D03*
X169675000Y-81200000D03*
X169025000Y-81200000D03*
%TD*%
D40*
%TO.C,U18*%
X188995000Y-83725000D03*
X190265000Y-83725000D03*
X191535000Y-83725000D03*
X192805000Y-83725000D03*
X192805000Y-78775000D03*
X191535000Y-78775000D03*
X190265000Y-78775000D03*
X188995000Y-78775000D03*
%TD*%
D23*
%TO.C,C75*%
X147935000Y-93780000D03*
X150885000Y-93780000D03*
%TD*%
D14*
%TO.C,R7*%
X172900000Y-57175000D03*
X172900000Y-58825000D03*
%TD*%
%TO.C,R94*%
X181100000Y-125580000D03*
X181100000Y-127230000D03*
%TD*%
D15*
%TO.C,R43*%
X167035000Y-126470000D03*
X168685000Y-126470000D03*
%TD*%
%TO.C,R40*%
X165895000Y-84100000D03*
X167545000Y-84100000D03*
%TD*%
D25*
%TO.C,C61*%
X194340000Y-113895000D03*
X194340000Y-115445000D03*
%TD*%
D14*
%TO.C,R5*%
X172900000Y-60195000D03*
X172900000Y-61845000D03*
%TD*%
D13*
%TO.C,R30*%
X170625000Y-91830000D03*
X168975000Y-91830000D03*
%TD*%
D45*
%TO.C,U7*%
X153637500Y-97185000D03*
X153637500Y-97835000D03*
X153637500Y-98485000D03*
X153637500Y-99135000D03*
X153637500Y-99785000D03*
X153637500Y-100435000D03*
X153637500Y-101085000D03*
X153637500Y-101735000D03*
X153637500Y-102385000D03*
X153637500Y-103035000D03*
X153637500Y-103685000D03*
X153637500Y-104335000D03*
X153637500Y-104985000D03*
X153637500Y-105635000D03*
X159362500Y-105635000D03*
X159362500Y-104985000D03*
X159362500Y-104335000D03*
X159362500Y-103685000D03*
X159362500Y-103035000D03*
X159362500Y-102385000D03*
X159362500Y-101735000D03*
X159362500Y-101085000D03*
X159362500Y-100435000D03*
X159362500Y-99785000D03*
X159362500Y-99135000D03*
X159362500Y-98485000D03*
X159362500Y-97835000D03*
X159362500Y-97185000D03*
%TD*%
D13*
%TO.C,JP6*%
X157060000Y-127780000D03*
X155410000Y-127780000D03*
D15*
X153760000Y-127780000D03*
%TD*%
D25*
%TO.C,C78*%
X187380000Y-99375000D03*
X187380000Y-100925000D03*
%TD*%
%TO.C,C76*%
X172480000Y-102275000D03*
X172480000Y-103825000D03*
%TD*%
D21*
%TO.C,R9*%
X185870000Y-58825000D03*
X185870000Y-57175000D03*
%TD*%
D14*
%TO.C,R18*%
X184387344Y-57175000D03*
X184387344Y-58825000D03*
%TD*%
D33*
%TO.C,C2*%
X156707500Y-55865000D03*
X156707500Y-58815000D03*
%TD*%
D13*
%TO.C,R69*%
X187535000Y-108940000D03*
X185885000Y-108940000D03*
%TD*%
D25*
%TO.C,C66*%
X185470000Y-115995000D03*
X185470000Y-117545000D03*
%TD*%
D26*
%TO.C,D7*%
X172800000Y-127960000D03*
X173800000Y-127960000D03*
X173300000Y-126660000D03*
%TD*%
M02*
