<svg width="209" height="112" viewBox="0 0 209 112" fill="none" xmlns="http://www.w3.org/2000/svg">
<rect x="147.152" y="40.5605" width="7.05955" height="7.05955" fill="white" stroke="white" stroke-width="0.5"/>
<rect x="154.711" y="40.5605" width="7.05955" height="7.05955" fill="white" stroke="white" stroke-width="0.5"/>
<rect x="162.27" y="40.5605" width="7.05955" height="7.05955" fill="white" stroke="white" stroke-width="0.5"/>
<rect x="169.832" y="40.5605" width="7.05955" height="7.05955" fill="white" stroke="white" stroke-width="0.5"/>
<rect x="177.391" y="40.5605" width="7.05955" height="7.05955" stroke="white" stroke-width="0.5"/>
<rect x="184.949" y="40.5605" width="7.05955" height="7.05955" stroke="white" stroke-width="0.5"/>
<rect x="192.508" y="40.5605" width="7.05955" height="7.05955" stroke="white" stroke-width="0.5"/>
<rect x="200.07" y="40.5605" width="7.05955" height="7.05955" stroke="white" stroke-width="0.5"/>
<rect x="147.152" y="48.1191" width="7.05955" height="7.05955" fill="white" stroke="white" stroke-width="0.5"/>
<rect x="154.711" y="48.1191" width="7.05955" height="7.05955" fill="white" stroke="white" stroke-width="0.5"/>
<rect x="162.27" y="48.1191" width="7.05955" height="7.05955" fill="white" stroke="white" stroke-width="0.5"/>
<rect x="169.832" y="48.1191" width="7.05955" height="7.05955" stroke="white" stroke-width="0.5"/>
<rect x="177.391" y="48.1191" width="7.05955" height="7.05955" stroke="white" stroke-width="0.5"/>
<rect x="184.949" y="48.1191" width="7.05955" height="7.05955" stroke="white" stroke-width="0.5"/>
<rect x="192.508" y="48.1191" width="7.05955" height="7.05955" stroke="white" stroke-width="0.5"/>
<rect x="200.07" y="48.1191" width="7.05955" height="7.05955" stroke="white" stroke-width="0.5"/>
<rect x="147.152" y="55.6797" width="7.05955" height="7.05955" fill="white" stroke="white" stroke-width="0.5"/>
<rect x="154.711" y="55.6797" width="7.05955" height="7.05955" fill="white" stroke="white" stroke-width="0.5"/>
<rect x="162.27" y="55.6797" width="7.05955" height="7.05955" stroke="white" stroke-width="0.5"/>
<rect x="169.832" y="55.6797" width="7.05955" height="7.05955" stroke="white" stroke-width="0.5"/>
<rect x="177.391" y="55.6797" width="7.05955" height="7.05955" stroke="white" stroke-width="0.5"/>
<rect x="184.949" y="55.6797" width="7.05955" height="7.05955" stroke="white" stroke-width="0.5"/>
<rect x="192.508" y="55.6797" width="7.05955" height="7.05955" stroke="white" stroke-width="0.5"/>
<rect x="200.07" y="55.6797" width="7.05955" height="7.05955" stroke="white" stroke-width="0.5"/>
<rect x="147.152" y="63.2383" width="7.05955" height="7.05955" stroke="white" stroke-width="0.5"/>
<rect x="154.711" y="63.2383" width="7.05955" height="7.05955" stroke="white" stroke-width="0.5"/>
<rect x="162.27" y="63.2383" width="7.05955" height="7.05955" stroke="white" stroke-width="0.5"/>
<rect x="169.832" y="63.2383" width="7.05955" height="7.05955" stroke="white" stroke-width="0.5"/>
<rect x="177.391" y="63.2383" width="7.05955" height="7.05955" stroke="white" stroke-width="0.5"/>
<rect x="184.949" y="63.2383" width="7.05955" height="7.05955" stroke="white" stroke-width="0.5"/>
<rect x="192.508" y="63.2383" width="7.05955" height="7.05955" stroke="white" stroke-width="0.5"/>
<rect x="200.07" y="63.2383" width="7.05955" height="7.05955" stroke="white" stroke-width="0.5"/>
<rect x="147.152" y="70.7988" width="7.05955" height="7.05955" stroke="white" stroke-width="0.5"/>
<rect x="154.711" y="70.7988" width="7.05955" height="7.05955" stroke="white" stroke-width="0.5"/>
<rect x="162.27" y="70.7988" width="7.05955" height="7.05955" stroke="white" stroke-width="0.5"/>
<rect x="169.832" y="70.7988" width="7.05955" height="7.05955" stroke="white" stroke-width="0.5"/>
<rect x="177.391" y="70.7988" width="7.05955" height="7.05955" stroke="white" stroke-width="0.5"/>
<rect x="184.949" y="70.7988" width="7.05955" height="7.05955" stroke="white" stroke-width="0.5"/>
<rect x="192.508" y="70.7988" width="7.05955" height="7.05955" stroke="white" stroke-width="0.5"/>
<rect x="200.07" y="70.7988" width="7.05955" height="7.05955" stroke="white" stroke-width="0.5"/>
<rect x="147.152" y="78.3574" width="7.05955" height="7.05955" stroke="white" stroke-width="0.5"/>
<rect x="154.711" y="78.3574" width="7.05955" height="7.05955" stroke="white" stroke-width="0.5"/>
<rect x="162.27" y="78.3574" width="7.05955" height="7.05955" stroke="white" stroke-width="0.5"/>
<rect x="169.832" y="78.3574" width="7.05955" height="7.05955" stroke="white" stroke-width="0.5"/>
<rect x="177.391" y="78.3574" width="7.05955" height="7.05955" stroke="white" stroke-width="0.5"/>
<rect x="184.949" y="78.3574" width="7.05955" height="7.05955" stroke="white" stroke-width="0.5"/>
<rect x="192.508" y="78.3574" width="7.05955" height="7.05955" stroke="white" stroke-width="0.5"/>
<rect x="200.07" y="78.3574" width="7.05955" height="7.05955" stroke="white" stroke-width="0.5"/>
<rect x="147.152" y="85.918" width="7.05955" height="7.05955" stroke="white" stroke-width="0.5"/>
<rect x="154.711" y="85.918" width="7.05955" height="7.05955" stroke="white" stroke-width="0.5"/>
<rect x="162.27" y="85.918" width="7.05955" height="7.05955" stroke="white" stroke-width="0.5"/>
<rect x="169.832" y="85.918" width="7.05955" height="7.05955" stroke="white" stroke-width="0.5"/>
<rect x="177.391" y="85.918" width="7.05955" height="7.05955" stroke="white" stroke-width="0.5"/>
<rect x="184.949" y="85.918" width="7.05955" height="7.05955" stroke="white" stroke-width="0.5"/>
<rect x="192.508" y="85.918" width="7.05955" height="7.05955" fill="white" stroke="white" stroke-width="0.5"/>
<rect x="200.07" y="85.918" width="7.05955" height="7.05955" fill="white" stroke="white" stroke-width="0.5"/>
<rect x="147.152" y="93.4766" width="7.05955" height="7.05955" stroke="white" stroke-width="0.5"/>
<rect x="154.711" y="93.4766" width="7.05955" height="7.05955" stroke="white" stroke-width="0.5"/>
<rect x="162.27" y="93.4766" width="7.05955" height="7.05955" stroke="white" stroke-width="0.5"/>
<rect x="169.832" y="93.4766" width="7.05955" height="7.05955" stroke="white" stroke-width="0.5"/>
<rect x="177.391" y="93.4766" width="7.05955" height="7.05955" stroke="white" stroke-width="0.5"/>
<rect x="184.949" y="93.4766" width="7.05955" height="7.05955" fill="white" stroke="white" stroke-width="0.5"/>
<rect x="192.508" y="93.4766" width="7.05955" height="7.05955" fill="white" stroke="white" stroke-width="0.5"/>
<rect x="200.07" y="93.4766" width="7.05955" height="7.05955" fill="white" stroke="white" stroke-width="0.5"/>
<path d="M184.696 100.03L177.893 93.2266M183.94 100.786L177.137 93.9825M177.137 100.03L183.94 93.2266M177.893 100.786L184.696 93.9825M184.696 93.2266H177.137V100.786H184.696V93.2266ZM184.696 95.4944L182.428 93.2266L177.137 98.5182L179.405 100.786L184.696 95.4944ZM184.696 97.0063L180.916 93.2266L177.137 97.0063L180.916 100.786L184.696 97.0063ZM184.696 98.5182L179.405 93.2266L177.137 95.4944L182.428 100.786L184.696 98.5182Z" stroke="white" stroke-width="0.5"/>
<path d="M192.259 92.4716L185.455 85.668M191.503 93.2275L184.699 86.4239M184.699 92.4716L191.503 85.668M185.455 93.2275L192.259 86.4239M192.259 85.668H184.699V93.2275H192.259V85.668ZM192.259 87.9358L189.991 85.668L184.699 90.9597L186.967 93.2275L192.259 87.9358ZM192.259 89.4477L188.479 85.668L184.699 89.4477L188.479 93.2275L192.259 89.4477ZM192.259 90.9597L186.967 85.668L184.699 87.9358L189.991 93.2275L192.259 90.9597Z" stroke="white" stroke-width="0.5"/>
<path d="M199.817 84.911L193.014 78.1074M199.061 85.667L192.258 78.8634M192.258 84.911L199.061 78.1074M193.014 85.667L199.817 78.8634M199.817 78.1074H192.258V85.667H199.817V78.1074ZM199.817 80.3753L197.549 78.1074L192.258 83.3991L194.526 85.667L199.817 80.3753ZM199.817 81.8872L196.038 78.1074L192.258 81.8872L196.038 85.667L199.817 81.8872ZM199.817 83.3991L194.526 78.1074L192.258 80.3753L197.549 85.667L199.817 83.3991Z" stroke="white" stroke-width="0.5"/>
<path d="M207.376 84.911L200.572 78.1074M206.62 85.667L199.816 78.8634M199.816 84.911L206.62 78.1074M200.572 85.667L207.376 78.8634M207.376 78.1074H199.816V85.667H207.376V78.1074ZM207.376 80.3753L205.108 78.1074L199.816 83.3991L202.084 85.667L207.376 80.3753ZM207.376 81.8872L203.596 78.1074L199.816 81.8872L203.596 85.667L207.376 81.8872ZM207.376 83.3991L202.084 78.1074L199.816 80.3753L205.108 85.667L207.376 83.3991Z" stroke="white" stroke-width="0.5"/>
<path d="M184.696 47.1141L177.893 40.3105M183.94 47.8701L177.137 41.0665M177.137 47.1141L183.94 40.3105M177.893 47.8701L184.696 41.0665M184.696 40.3105H177.137V47.8701H184.696V40.3105ZM184.696 42.5784L182.428 40.3105L177.137 45.6022L179.405 47.8701L184.696 42.5784ZM184.696 44.0903L180.916 40.3105L177.137 44.0903L180.916 47.8701L184.696 44.0903ZM184.696 45.6022L179.405 40.3105L177.137 42.5784L182.428 47.8701L184.696 45.6022Z" stroke="white" stroke-width="0.5"/>
<path d="M184.696 54.6747L177.893 47.8711M183.94 55.4306L177.137 48.627M177.137 54.6747L183.94 47.8711M177.893 55.4306L184.696 48.627M184.696 47.8711H177.137V55.4306H184.696V47.8711ZM184.696 50.139L182.428 47.8711L177.137 53.1628L179.405 55.4306L184.696 50.139ZM184.696 51.6509L180.916 47.8711L177.137 51.6509L180.916 55.4306L184.696 51.6509ZM184.696 53.1628L179.405 47.8711L177.137 50.139L182.428 55.4306L184.696 53.1628Z" stroke="white" stroke-width="0.5"/>
<path d="M177.138 54.6747L170.334 47.8711M176.382 55.4306L169.578 48.627M169.578 54.6747L176.382 47.8711M170.334 55.4306L177.138 48.627M177.138 47.8711H169.578V55.4306H177.138V47.8711ZM177.138 50.139L174.87 47.8711L169.578 53.1628L171.846 55.4306L177.138 50.139ZM177.138 51.6509L173.358 47.8711L169.578 51.6509L173.358 55.4306L177.138 51.6509ZM177.138 53.1628L171.846 47.8711L169.578 50.139L174.87 55.4306L177.138 53.1628Z" stroke="white" stroke-width="0.5"/>
<path d="M177.138 62.2333L170.334 55.4297M176.382 62.9892L169.578 56.1856M169.578 62.2333L176.382 55.4297M170.334 62.9892L177.138 56.1856M177.138 55.4297H169.578V62.9892H177.138V55.4297ZM177.138 57.6976L174.87 55.4297L169.578 60.7214L171.846 62.9892L177.138 57.6976ZM177.138 59.2095L173.358 55.4297L169.578 59.2095L173.358 62.9892L177.138 59.2095ZM177.138 60.7214L171.846 55.4297L169.578 57.6976L174.87 62.9892L177.138 60.7214Z" stroke="white" stroke-width="0.5"/>
<path d="M169.579 62.2333L162.775 55.4297M168.823 62.9892L162.02 56.1856M162.02 62.2333L168.823 55.4297M162.775 62.9892L169.579 56.1856M169.579 55.4297H162.02V62.9892H169.579V55.4297ZM169.579 57.6976L167.311 55.4297L162.02 60.7214L164.287 62.9892L169.579 57.6976ZM169.579 59.2095L165.799 55.4297L162.02 59.2095L165.799 62.9892L169.579 59.2095ZM169.579 60.7214L164.287 55.4297L162.02 57.6976L167.311 62.9892L169.579 60.7214Z" stroke="white" stroke-width="0.5"/>
<path d="M162.02 69.7919L155.217 62.9883M161.265 70.5478L154.461 63.7442M154.461 69.7919L161.265 62.9883M155.217 70.5478L162.02 63.7442M162.02 62.9883H154.461V70.5478H162.02V62.9883ZM162.02 65.2561L159.753 62.9883L154.461 68.28L156.729 70.5478L162.02 65.2561ZM162.02 66.7681L158.241 62.9883L154.461 66.7681L158.241 70.5478L162.02 66.7681ZM162.02 68.28L156.729 62.9883L154.461 65.2561L159.753 70.5478L162.02 68.28Z" stroke="white" stroke-width="0.5"/>
<path d="M154.462 69.7919L147.658 62.9883M153.706 70.5478L146.902 63.7442M146.902 69.7919L153.706 62.9883M147.658 70.5478L154.462 63.7442M154.462 62.9883H146.902V70.5478H154.462V62.9883ZM154.462 65.2561L152.194 62.9883L146.902 68.28L149.17 70.5478L154.462 65.2561ZM154.462 66.7681L150.682 62.9883L146.902 66.7681L150.682 70.5478L154.462 66.7681ZM154.462 68.28L149.17 62.9883L146.902 65.2561L152.194 70.5478L154.462 68.28Z" stroke="white" stroke-width="0.5"/>
<path d="M184.695 57.6976L182.427 55.4297M179.404 62.9892L177.136 60.7214M184.695 59.2095L180.916 55.4297M180.916 62.9892L177.136 59.2095M184.695 60.7214L179.404 55.4297M182.427 62.9892L177.136 57.6976M184.695 62.2333L177.892 55.4297M183.939 62.9892L177.136 56.1856M184.695 55.4297H177.136V62.9892H184.695V55.4297Z" stroke="white" stroke-width="0.5"/>
<path d="M207.375 72.8167L205.107 70.5488M202.083 78.1084L199.815 75.8405M207.375 74.3286L203.595 70.5488M203.595 78.1084L199.815 74.3286M207.375 75.8405L202.083 70.5488M205.107 78.1084L199.815 72.8167M207.375 77.3524L200.571 70.5488M206.619 78.1084L199.815 71.3048M207.375 70.5488H199.815V78.1084H207.375V70.5488Z" stroke="white" stroke-width="0.5"/>
<path d="M199.816 72.8167L197.549 70.5488M194.525 78.1084L192.257 75.8405M199.816 74.3286L196.037 70.5488M196.037 78.1084L192.257 74.3286M199.816 75.8405L194.525 70.5488M197.549 78.1084L192.257 72.8167M199.816 77.3524L193.013 70.5488M199.06 78.1084L192.257 71.3048M199.816 70.5488H192.257V78.1084H199.816V70.5488Z" stroke="white" stroke-width="0.5"/>
<path d="M192.258 80.3753L189.99 78.1074M186.966 85.667L184.698 83.3991M192.258 81.8872L188.478 78.1074M188.478 85.667L184.698 81.8872M192.258 83.3991L186.966 78.1074M189.99 85.667L184.698 80.3753M192.258 84.911L185.454 78.1074M191.502 85.667L184.698 78.8634M192.258 78.1074H184.698V85.667H192.258V78.1074Z" stroke="white" stroke-width="0.5"/>
<path d="M184.695 80.3753L182.427 78.1074M179.404 85.667L177.136 83.3991M184.695 81.8872L180.916 78.1074M180.916 85.667L177.136 81.8872M184.695 83.3991L179.404 78.1074M182.427 85.667L177.136 80.3753M184.695 84.911L177.892 78.1074M183.939 85.667L177.136 78.8634M184.695 78.1074H177.136V85.667H184.695V78.1074Z" stroke="white" stroke-width="0.5"/>
<path d="M184.695 87.9358L182.427 85.668M179.404 93.2275L177.136 90.9597M184.695 89.4477L180.916 85.668M180.916 93.2275L177.136 89.4477M184.695 90.9597L179.404 85.668M182.427 93.2275L177.136 87.9358M184.695 92.4716L177.892 85.668M183.939 93.2275L177.136 86.4239M184.695 85.668H177.136V93.2275H184.695V85.668Z" stroke="white" stroke-width="0.5"/>
<path d="M177.137 65.2561L174.869 62.9883M171.845 70.5478L169.577 68.28M177.137 66.7681L173.357 62.9883M173.357 70.5478L169.577 66.7681M177.137 68.28L171.845 62.9883M174.869 70.5478L169.577 65.2561M177.137 69.7919L170.333 62.9883M176.381 70.5478L169.577 63.7442M177.137 62.9883H169.577V70.5478H177.137V62.9883Z" stroke="white" stroke-width="0.5"/>
<path d="M169.578 65.2561L167.31 62.9883M164.286 70.5478L162.019 68.28M169.578 66.7681L165.798 62.9883M165.798 70.5478L162.019 66.7681M169.578 68.28L164.286 62.9883M167.31 70.5478L162.019 65.2561M169.578 69.7919L162.775 62.9883M168.822 70.5478L162.019 63.7442M169.578 62.9883H162.019V70.5478H169.578V62.9883Z" stroke="white" stroke-width="0.5"/>
<path d="M162.02 72.8167L159.752 70.5488M156.728 78.1084L154.46 75.8405M162.02 74.3286L158.24 70.5488M158.24 78.1084L154.46 74.3286M162.02 75.8405L156.728 70.5488M159.752 78.1084L154.46 72.8167M162.02 77.3524L155.216 70.5488M161.264 78.1084L154.46 71.3048M162.02 70.5488H154.46V78.1084H162.02V70.5488Z" stroke="white" stroke-width="0.5"/>
<path d="M154.461 72.8167L152.193 70.5488M149.169 78.1084L146.901 75.8405M154.461 74.3286L150.681 70.5488M150.681 78.1084L146.901 74.3286M154.461 75.8405L149.169 70.5488M152.193 78.1084L146.901 72.8167M154.461 77.3524L147.657 70.5488M153.705 78.1084L146.901 71.3048M154.461 70.5488H146.901V78.1084H154.461V70.5488Z" stroke="white" stroke-width="0.5"/>
<path d="M187.723 47.8703L184.699 44.8464M192.259 47.1143L185.455 40.3107M190.369 47.8703L184.699 42.2006M187.723 40.3105L192.259 44.8463M189.991 40.3109L192.259 42.5787M192.259 40.3107V47.8703H184.699V40.3107H192.259Z" stroke="white" stroke-width="0.5"/>
<path d="M187.723 55.4308L184.699 52.407M192.259 54.6749L185.455 47.8713M190.369 55.4308L184.699 49.7611M187.723 47.8711L192.259 52.4068M189.991 47.8714L192.259 50.1393M192.259 47.8713V55.4308H184.699V47.8713H192.259Z" stroke="white" stroke-width="0.5"/>
<path d="M180.161 70.548L177.137 67.5242M184.696 69.792L177.893 62.9884M182.806 70.548L177.137 64.8783M180.161 62.9883L184.696 67.524M182.428 62.9886L184.696 65.2565M184.696 62.9884V70.548H177.137V62.9884H184.696Z" stroke="white" stroke-width="0.5"/>
<path d="M187.723 78.1085L184.699 75.0847M192.259 77.3526L185.455 70.549M190.369 78.1085L184.699 72.4389M187.723 70.5488L192.259 75.0846M189.991 70.5492L192.259 72.817M192.259 70.549V78.1085H184.699V70.549H192.259Z" stroke="white" stroke-width="0.5"/>
<path d="M165.043 78.1085L162.02 75.0847M169.579 77.3526L162.775 70.549M167.689 78.1085L162.02 72.4389M165.043 70.5488L169.579 75.0846M167.311 70.5492L169.579 72.817M169.579 70.549V78.1085H162.02V70.549H169.579Z" stroke="white" stroke-width="0.5"/>
<path d="M172.602 78.1085L169.578 75.0847M177.138 77.3526L170.334 70.549M175.248 78.1085L169.578 72.4389M172.602 70.5488L177.138 75.0846M174.87 70.5492L177.138 72.817M177.138 70.549V78.1085H169.578V70.549H177.138Z" stroke="white" stroke-width="0.5"/>
<path d="M149.926 85.6671L146.902 82.6433M154.462 84.9112L147.658 78.1076M152.572 85.6671L146.902 79.9975M149.926 78.1074L154.462 82.6431M152.194 78.1078L154.462 80.3756M154.462 78.1076V85.6671H146.902V78.1076H154.462Z" stroke="white" stroke-width="0.5"/>
<path d="M157.485 85.6671L154.461 82.6433M162.02 84.9112L155.217 78.1076M160.131 85.6671L154.461 79.9975M157.485 78.1074L162.02 82.6431M159.753 78.1078L162.02 80.3756M162.02 78.1076V85.6671H154.461V78.1076H162.02Z" stroke="white" stroke-width="0.5"/>
<path d="M165.043 85.6671L162.02 82.6433M169.579 84.9112L162.775 78.1076M167.689 85.6671L162.02 79.9975M165.043 78.1074L169.579 82.6431M167.311 78.1078L169.579 80.3756M169.579 78.1076V85.6671H162.02V78.1076H169.579Z" stroke="white" stroke-width="0.5"/>
<path d="M172.602 85.6671L169.578 82.6433M177.138 84.9112L170.334 78.1076M175.248 85.6671L169.578 79.9975M172.602 78.1074L177.138 82.6431M174.87 78.1078L177.138 80.3756M177.138 78.1076V85.6671H169.578V78.1076H177.138Z" stroke="white" stroke-width="0.5"/>
<path d="M165.043 93.2277L162.02 90.2039M169.579 92.4717L162.775 85.6681M167.689 93.2277L162.02 87.558M165.043 85.668L169.579 90.2037M167.311 85.6683L169.579 87.9362M169.579 85.6681V93.2277H162.02V85.6681H169.579Z" stroke="white" stroke-width="0.5"/>
<path d="M172.602 93.2277L169.578 90.2039M177.138 92.4717L170.334 85.6681M175.248 93.2277L169.578 87.558M172.602 85.668L177.138 90.2037M174.87 85.6683L177.138 87.9362M177.138 85.6681V93.2277H169.578V85.6681H177.138Z" stroke="white" stroke-width="0.5"/>
<path d="M165.043 100.786L162.02 97.7625M169.579 100.03L162.775 93.2267M167.689 100.786L162.02 95.1166M165.043 93.2266L169.579 97.7623M167.311 93.2269L169.579 95.4948M169.579 93.2267V100.786H162.02V93.2267H169.579Z" stroke="white" stroke-width="0.5"/>
<path d="M172.602 100.786L169.578 97.7625M177.138 100.03L170.334 93.2267M175.248 100.786L169.578 95.1166M172.602 93.2266L177.138 97.7623M174.87 93.2269L177.138 95.4948M177.138 93.2267V100.786H169.578V93.2267H177.138Z" stroke="white" stroke-width="0.5"/>
<rect x="146.645" y="40.0547" width="60.9883" height="60.9883" stroke="white"/>
<path d="M52.7329 57.418L48.3672 1.00003H56.4269L52.7329 57.418Z" fill="white" stroke="white" stroke-width="0.5"/>
<path d="M97.4946 83.3791C97.617 83.3625 97.6783 83.2563 97.6317 83.142L96.8713 81.279C96.8246 81.1647 96.6876 81.0855 96.5652 81.1022C96.4429 81.1188 96.3815 81.225 96.4282 81.3393L97.1041 82.9953L95.3318 83.2364C95.2095 83.253 95.1481 83.3592 95.1948 83.4735C95.2414 83.5878 95.3784 83.667 95.5008 83.6504L97.4946 83.3791ZM55.657 59.2653L97.3132 83.3398L97.507 83.0045L55.8508 58.93L55.657 59.2653Z" fill="white"/>
<path d="M91.4727 86.7757C91.6418 86.7757 91.7789 86.6966 91.7789 86.5989L91.7789 85.008C91.7789 84.9104 91.6418 84.8313 91.4727 84.8313C91.3036 84.8313 91.1665 84.9104 91.1665 85.008L91.1665 86.4222L88.717 86.4222C88.5479 86.4222 88.4108 86.5013 88.4108 86.5989C88.4108 86.6966 88.5479 86.7757 88.717 86.7757L91.4727 86.7757ZM43.764 59.3066L91.2562 86.7239L91.6893 86.4739L44.197 59.0566L43.764 59.3066Z" fill="white"/>
<path d="M85.5352 90.2034C85.7043 90.2034 85.8414 90.1243 85.8414 90.0267L85.8414 88.4358C85.8414 88.3382 85.7043 88.259 85.5352 88.259C85.3661 88.259 85.229 88.3382 85.229 88.4358L85.229 89.8499L82.7795 89.8499C82.6104 89.8499 82.4733 89.929 82.4733 90.0267C82.4733 90.1243 82.6104 90.2034 82.7795 90.2034L85.5352 90.2034ZM37.8265 62.7344L85.3187 90.1517L85.7518 89.9017L38.2595 62.4844L37.8265 62.7344Z" fill="white"/>
<path d="M79.3634 93.7679C79.5325 93.7679 79.6696 93.6887 79.6696 93.5911L79.6696 92.0002C79.6696 91.9026 79.5325 91.8235 79.3634 91.8235C79.1943 91.8235 79.0572 91.9026 79.0572 92.0002L79.0572 93.4144L76.6076 93.4144C76.4385 93.4144 76.3014 93.4935 76.3014 93.5911C76.3014 93.6887 76.4385 93.7679 76.6076 93.7679L79.3634 93.7679ZM31.6546 66.2988L79.1469 93.7161L79.5799 93.4661L32.0876 66.0488L31.6546 66.2988Z" fill="white"/>
<path d="M73.1876 97.3323C73.3567 97.3323 73.4938 97.2532 73.4938 97.1556L73.4938 95.5647C73.4938 95.4671 73.3567 95.3879 73.1876 95.3879C73.0185 95.3879 72.8814 95.4671 72.8814 95.5647L72.8814 96.9788L70.4318 96.9788C70.2627 96.9788 70.1257 97.0579 70.1257 97.1556C70.1257 97.2532 70.2627 97.3323 70.4318 97.3323L73.1876 97.3323ZM25.4788 69.8633L72.9711 97.2806L73.4041 97.0306L25.9118 69.6133L25.4788 69.8633Z" fill="white"/>
<path d="M67.254 100.758C67.4231 100.758 67.5602 100.679 67.5602 100.581L67.5602 98.9905C67.5602 98.8928 67.4231 98.8137 67.254 98.8137C67.0849 98.8137 66.9478 98.8928 66.9478 98.9905L66.9478 100.405L64.4983 100.405C64.3291 100.405 64.1921 100.484 64.1921 100.581C64.1921 100.679 64.3291 100.758 64.4983 100.758L67.254 100.758ZM19.5452 73.2891L67.0375 100.706L67.4705 100.456L19.9782 73.0391L19.5452 73.2891Z" fill="white"/>
<path d="M61.0782 104.323C61.2473 104.323 61.3844 104.243 61.3844 104.146L61.3844 102.555C61.3844 102.457 61.2473 102.378 61.0782 102.378C60.9091 102.378 60.772 102.457 60.772 102.555L60.772 103.969L58.3225 103.969C58.1534 103.969 58.0163 104.048 58.0163 104.146C58.0163 104.243 58.1534 104.323 58.3225 104.323L61.0782 104.323ZM13.3694 76.8535L60.8617 104.271L61.2947 104.021L13.8024 76.6035L13.3694 76.8535Z" fill="white"/>
<path d="M61.0782 104.323C61.2473 104.323 61.3844 104.243 61.3844 104.146L61.3844 102.555C61.3844 102.457 61.2473 102.378 61.0782 102.378C60.9091 102.378 60.772 102.457 60.772 102.555L60.772 103.969L58.3225 103.969C58.1534 103.969 58.0163 104.048 58.0163 104.146C58.0163 104.243 58.1534 104.323 58.3225 104.323L61.0782 104.323ZM13.3694 76.8535L60.8617 104.271L61.2947 104.021L13.8024 76.6035L13.3694 76.8535Z" fill="white"/>
<path d="M55.1407 107.75C55.3098 107.75 55.4469 107.671 55.4469 107.574L55.4469 105.983C55.4469 105.885 55.3098 105.806 55.1407 105.806C54.9716 105.806 54.8345 105.885 54.8345 105.983L54.8345 107.397L52.385 107.397C52.2159 107.397 52.0788 107.476 52.0788 107.574C52.0788 107.671 52.2159 107.75 52.385 107.75L55.1407 107.75ZM7.43193 80.2812L54.9242 107.699L55.3572 107.449L7.86495 80.0313L7.43193 80.2812Z" fill="white"/>
<path d="M49.2032 111.178C49.3723 111.178 49.5094 111.099 49.5094 111.001L49.5094 109.41C49.5094 109.313 49.3723 109.234 49.2032 109.234C49.0341 109.234 48.897 109.313 48.897 109.41L48.897 110.825L46.4475 110.825C46.2784 110.825 46.1413 110.904 46.1413 111.001C46.1413 111.099 46.2784 111.178 46.4475 111.178L49.2032 111.178ZM1.49443 83.709L48.9867 111.126L49.4197 110.876L1.92745 83.459L1.49443 83.709Z" fill="white"/>
<path d="M43.4182 58.7583C43.2513 58.7709 43.1337 58.8599 43.1556 58.9572L43.5128 60.5417C43.5347 60.639 43.6878 60.7076 43.8547 60.695C44.0217 60.6824 44.1392 60.5933 44.1173 60.4961L43.7998 59.0876L46.2178 58.9049C46.3848 58.8923 46.5023 58.8032 46.4804 58.706C46.4585 58.6087 46.3054 58.5401 46.1385 58.5528L43.4182 58.7583ZM97.1189 82.7573L43.6435 58.7937L43.2722 59.075L96.7475 83.0385L97.1189 82.7573Z" fill="white"/>
<path d="M37.2697 62.2465C37.1028 62.2592 36.9853 62.3482 37.0072 62.4454L37.3644 64.03C37.3863 64.1273 37.5394 64.1959 37.7063 64.1833C37.8732 64.1706 37.9908 64.0816 37.9689 63.9844L37.6514 62.5758L40.0694 62.3932C40.2363 62.3806 40.3539 62.2915 40.332 62.1943C40.31 62.097 40.1569 62.0284 39.99 62.041L37.2697 62.2465ZM90.9704 86.2455L37.4951 62.282L37.1238 62.5633L90.5991 86.5268L90.9704 86.2455Z" fill="white"/>
<path d="M31.1721 65.7641C31.0052 65.7767 30.8876 65.8658 30.9095 65.963L31.2667 67.5476C31.2886 67.6448 31.4417 67.7134 31.6086 67.7008C31.7756 67.6882 31.8931 67.5992 31.8712 67.5019L31.5537 66.0934L33.9717 65.9107C34.1387 65.8981 34.2562 65.8091 34.2343 65.7118C34.2124 65.6146 34.0593 65.546 33.8924 65.5586L31.1721 65.7641ZM84.8728 89.7631L31.3974 65.7995L31.0261 66.0808L84.5014 90.0444L84.8728 89.7631Z" fill="white"/>
<path d="M25.0744 69.2856C24.9075 69.2982 24.79 69.3873 24.8119 69.4845L25.169 71.0691C25.191 71.1663 25.344 71.2349 25.511 71.2223C25.6779 71.2097 25.7955 71.1207 25.7735 71.0234L25.4561 69.6149L27.8741 69.4322C28.041 69.4196 28.1586 69.3306 28.1366 69.2333C28.1147 69.1361 27.9616 69.0675 27.7947 69.0801L25.0744 69.2856ZM78.7751 93.2846L25.2998 69.321L24.9285 69.6023L78.4038 93.5659L78.7751 93.2846Z" fill="white"/>
<path d="M18.9807 72.8032C18.8138 72.8158 18.6962 72.9048 18.7181 73.0021L19.0753 74.5867C19.0972 74.6839 19.2503 74.7525 19.4172 74.7399C19.5842 74.7273 19.7017 74.6382 19.6798 74.541L19.3623 73.1325L21.7803 72.9498C21.9473 72.9372 22.0648 72.8481 22.0429 72.7509C22.021 72.6537 21.8679 72.5851 21.701 72.5977L18.9807 72.8032ZM72.6814 96.8022L19.206 72.8386L18.8347 73.1199L72.31 97.0835L72.6814 96.8022Z" fill="white"/>
<path d="M12.883 76.3227C12.7161 76.3353 12.5985 76.4244 12.6205 76.5216L12.9776 78.1062C12.9996 78.2034 13.1526 78.272 13.3196 78.2594C13.4865 78.2468 13.6041 78.1578 13.5821 78.0605L13.2647 76.652L15.6827 76.4693C15.8496 76.4567 15.9672 76.3677 15.9452 76.2704C15.9233 76.1732 15.7702 76.1046 15.6033 76.1172L12.883 76.3227ZM66.5837 100.322L13.1084 76.3581L12.7371 76.6394L66.2124 100.603L66.5837 100.322Z" fill="white"/>
<path d="M7.01194 79.7114C6.84501 79.724 6.72745 79.8131 6.74937 79.9103L7.10654 81.4949C7.12846 81.5921 7.28155 81.6607 7.44848 81.6481C7.6154 81.6355 7.73296 81.5464 7.71104 81.4492L7.39356 80.0407L9.81157 79.858C9.9785 79.8454 10.0961 79.7564 10.0741 79.6591C10.0522 79.5619 9.89913 79.4933 9.7322 79.5059L7.01194 79.7114ZM60.7126 103.71L7.23729 79.7468L6.86596 80.0281L60.3413 103.992L60.7126 103.71Z" fill="white"/>
<path d="M1.14084 83.102C0.973914 83.1146 0.856357 83.2037 0.878277 83.3009L1.23545 84.8855C1.25736 84.9827 1.41045 85.0513 1.57738 85.0387C1.74431 85.0261 1.86187 84.9371 1.83995 84.8398L1.52247 83.4313L3.94048 83.2486C4.10741 83.236 4.22497 83.147 4.20305 83.0497C4.18113 82.9525 4.02804 82.8839 3.86111 82.8965L1.14084 83.102ZM54.8415 107.101L1.36619 83.1374L0.994863 83.4187L54.4702 107.382L54.8415 107.101Z" fill="white"/>
<path d="M58.7773 57.2959L52.7322 53.7246L46.3516 57.0828L52.9001 60.4862L58.7773 57.2959Z" fill="white" stroke="white" stroke-width="0.5"/>
<path d="M46.3593 56.9427C55.7764 39.0162 67.3509 34.2774 84.535 33.1301" stroke="white" stroke-width="0.5" stroke-dasharray="2 2"/>
<path d="M58.1947 57.5321C67.3928 40.0222 71.0664 35.6785 84.1563 34.6009" stroke="white" stroke-width="0.5" stroke-dasharray="2 2"/>
<path d="M108.356 33.462C127.485 30.8409 135.099 32.8303 146.903 39.9328" stroke="white" stroke-width="0.5"/>
<rect x="84.9102" y="26.7031" width="24.1905" height="13.6072" rx="4" fill="white"/>
</svg>
